<?xml version="1.0" encoding="utf-8"?>
<!-- Generator: Adobe Illustrator 18.1.1, SVG Export Plug-In . SVG Version: 6.00 Build 0)  -->
<svg version="1.1" id="레이어_1" xmlns="http://www.w3.org/2000/svg" xmlns:xlink="http://www.w3.org/1999/xlink" x="0px"
	 y="0px" viewBox="0 0 30 30" enable-background="new 0 0 30 30" xml:space="preserve">
<g>
	<path fill="#F8B500" d="M-96.7,12.5v1.7h-20.6v-1.7c-1.9,0-3.4,1.5-3.4,3.4v10.3c0,1,0.8,1.7,1.7,1.7H-95c1,0,1.7-0.8,1.7-1.7V15.9
		C-93.3,14-94.8,12.5-96.7,12.5L-96.7,12.5z M-98.4,24.5c0,1-0.8,1.7-1.7,1.7h-13.8c-0.9,0-1.7-0.8-1.7-1.7v-1.7h17.2V24.5z
		 M-95.8,19.4h-1.7c-0.5,0-0.9-0.4-0.9-0.9s0.4-0.9,0.9-0.9h1.7c0.5,0,0.9,0.4,0.9,0.9S-95.4,19.4-95.8,19.4L-95.8,19.4z
		 M-95.8,19.4"/>
	<g>
		<path fill="#9FA0A0" d="M-98.4,0.8h-17.2v12h17.2V0.8z M-99.4,11.8h-15.2v-10h15.2V11.8z M-100.1,11.1"/>
		<rect x="-112.5" y="3.7" fill="#9FA0A0" width="10.9" height="1"/>
		<rect x="-112.5" y="8.9" fill="#9FA0A0" width="10.9" height="1"/>
		<rect x="-112.5" y="6.3" fill="#9FA0A0" width="10.9" height="1"/>
	</g>
</g>
<g>
	<path fill="#F8B500" d="M-58,1.7h-2.1v8.5h-14.6V1.7h-2.1c-2.1,0-3.9,1.7-3.9,3.8v18.8c0,2.1,1.7,3.8,3.9,3.8H-58
		c2.1,0,3.9-1.7,3.9-3.8V5.5C-54.1,3.4-55.9,1.7-58,1.7z M-58.5,24.1c0,1.5-1.2,2.6-2.7,2.6h-12.4c-1.5,0-2.7-1.2-2.7-2.6v-5.3
		c0-1.5,1.2-2.7,2.7-2.7h12.4c1.5,0,2.7,1.2,2.7,2.7V24.1z"/>
	<g>
		<rect x="-73.1" y="2.9" fill="#B5B5B6" width="2.7" height="6"/>
	</g>
	<g>
		<rect x="-74.9" y="21.2" fill="#B5B5B6" width="15.1" height="0.7"/>
		<rect x="-74.9" y="23.3" fill="#B5B5B6" width="15.1" height="0.7"/>
		<rect x="-74.9" y="19" fill="#B5B5B6" width="15.1" height="0.7"/>
	</g>
	<path fill-rule="evenodd" clip-rule="evenodd" fill="#0068B7" d="M-63.6,6.3h2.6l-4.1,2.6l-4.1-2.6h2.9V0.6c0.9,0,1.9,0,2.8,0V6.3z
		"/>
</g>
<g>
	<path fill="#9FA0A0" d="M-35.5,0c8.3,0,15,6.7,15,15c0,8.3-6.7,15-15,15c-8.3,0-15-6.7-15-15C-50.5,6.7-43.8,0-35.5,0L-35.5,0z
		 M-35.5,29c7.7,0,14-6.3,14-14c0-7.7-6.3-14-14-14c-7.7,0-14,6.3-14,14C-49.5,22.7-43.2,29-35.5,29L-35.5,29z M-35.5,29"/>
	<path d="M-37.3,9.7c0.1,0,0.3,0,0.4,0.1l5,5c0.2,0.2,0.2,0.5,0,0.7l-5,5c-0.2,0.2-0.5,0.2-0.7,0c-0.2-0.2-0.2-0.5,0-0.7l4.6-4.6
		l-4.6-4.6c-0.2-0.2-0.2-0.5,0-0.7C-37.5,9.8-37.4,9.7-37.3,9.7L-37.3,9.7z M-37.3,9.7"/>
</g>
<g>
	<path fill="#9FA0A0" d="M-35.5,38.4c8.3,0,15,6.7,15,15c0,8.3-6.7,15-15,15c-8.3,0-15-6.7-15-15C-50.5,45.1-43.8,38.4-35.5,38.4
		L-35.5,38.4z M-35.5,67.4c7.7,0,14-6.3,14-14c0-7.7-6.3-14-14-14c-7.7,0-14,6.3-14,14C-49.5,61.1-43.2,67.4-35.5,67.4L-35.5,67.4z
		 M-35.5,67.4"/>
	<g>
		<path d="M-40.1,47.9c0.1,0,0.3,0,0.4,0.1l5,5c0.2,0.2,0.2,0.5,0,0.7l-5,5c-0.2,0.2-0.5,0.2-0.7,0c-0.2-0.2-0.2-0.5,0-0.7l4.6-4.6
			l-4.6-4.6c-0.2-0.2-0.2-0.5,0-0.7C-40.4,48-40.2,47.9-40.1,47.9L-40.1,47.9z M-40.1,47.9"/>
		<path d="M-30.5,48.2v10.4c0,0.2-0.2,0.4-0.5,0.4c-0.3,0-0.5-0.2-0.5-0.4V48.2c0-0.2,0.2-0.4,0.5-0.4C-30.7,47.8-30.5,48-30.5,48.2
			L-30.5,48.2z M-30.5,48.2"/>
	</g>
</g>
<g>
	<path fill="#9FA0A0" d="M-148.3,30c-8.3,0-15-6.7-15-15c0-8.3,6.7-15,15-15c8.3,0,15,6.7,15,15C-133.3,23.3-140.1,30-148.3,30
		L-148.3,30z M-148.3,1c-7.7,0-14,6.3-14,14c0,7.7,6.3,14,14,14c7.7,0,14-6.3,14-14C-134.4,7.3-140.6,1-148.3,1L-148.3,1z M-148.3,1
		"/>
	<path d="M-146.6,20.3c-0.1,0-0.3,0-0.4-0.1l-5-5c-0.2-0.2-0.2-0.5,0-0.7l5-5c0.2-0.2,0.5-0.2,0.7,0c0.2,0.2,0.2,0.5,0,0.7l-4.6,4.6
		l4.6,4.6c0.2,0.2,0.2,0.5,0,0.7C-146.3,20.2-146.5,20.3-146.6,20.3L-146.6,20.3z M-146.6,20.3"/>
</g>
<g>
	<path fill="#9FA0A0" d="M-153.1,71.8c-8.3,0-15-6.7-15-15c0-8.3,6.7-15,15-15c8.3,0,15,6.7,15,15
		C-138.1,65.1-144.8,71.8-153.1,71.8L-153.1,71.8z M-153.1,42.8c-7.7,0-14,6.3-14,14c0,7.7,6.3,14,14,14c7.7,0,14-6.3,14-14
		C-139.1,49.1-145.4,42.8-153.1,42.8L-153.1,42.8z M-153.1,42.8"/>
	<g>
		<path d="M-148.5,62.3c-0.1,0-0.3,0-0.4-0.1l-5-5c-0.2-0.2-0.2-0.5,0-0.7l5-5c0.2-0.2,0.5-0.2,0.7,0c0.2,0.2,0.2,0.5,0,0.7
			l-4.6,4.6l4.6,4.6c0.2,0.2,0.2,0.5,0,0.7C-148.2,62.3-148.4,62.3-148.5,62.3L-148.5,62.3z M-148.5,62.3"/>
		<path d="M-158.1,62V51.6c0-0.2,0.2-0.4,0.5-0.4c0.3,0,0.5,0.2,0.5,0.4V62c0,0.2-0.2,0.4-0.5,0.4C-157.9,62.5-158.1,62.3-158.1,62
			L-158.1,62z M-158.1,62"/>
	</g>
</g>
<rect fill="none" width="30" height="30"/>
<g>
	<g>
		<path fill="#9FA0A0" d="M29.4-19.6c2.5,0,4.6-2.1,4.6-4.6c0-2.5-2.1-4.6-4.6-4.6c-2.5,0-4.6,2.1-4.6,4.6
			C24.8-21.6,26.9-19.6,29.4-19.6L29.4-19.6z M29.4-19.6"/>
		<path fill="#9FA0A0" d="M25.5-18.7c-1.8,0-3.2,1.4-3.2,3.2v3.6c0,0.3,0.3,0.6,0.6,0.6h13c0.3,0,0.6-0.3,0.6-0.6v-3.5
			c0.1-0.1,0.1-0.2,0.1-0.3l2.5-6.6c0.1-0.2,0.1-0.5,0.1-0.7v-7.5c0-1.1-0.9-2-2-2c-1.1,0-2,0.9-2,2v7.1l-1.8,4.7H25.5z M25.5-18.7"
			/>
	</g>
	<g>
		<path fill="#F8B500" d="M10.8-33.5h2.6c0.5,0,1-0.4,1.1-0.9c0.1-1,0.4-1.7,0.9-2.1c0.4-0.4,1-0.6,1.7-0.6c0.8,0,1.4,0.2,1.9,0.7
			c0.5,0.5,0.7,1,0.7,1.7c0,0.3-0.1,0.7-0.2,1c-0.1,0.2-0.4,0.6-1.6,1.7c-1.1,1-1.9,1.9-2.4,2.8c-0.5,0.9-0.7,2.2-0.7,4.1
			c0,0.6,0.5,1.1,1.1,1.1h2.3c0.6,0,1.1-0.5,1.1-1.1c0-1.4,0.2-2,0.3-2.2c0.1-0.2,0.4-0.7,1.7-1.8c1.2-1,2-1.9,2.5-2.8
			c0.5-0.9,0.7-1.9,0.7-2.9c0-1.8-0.7-3.4-2.1-4.6c-1.3-1.2-3.1-1.7-5.2-1.7c-2,0-3.7,0.6-5,1.8c-1.3,1.2-2.1,2.8-2.3,4.8
			C9.7-34.1,10.1-33.5,10.8-33.5L10.8-33.5z M10.8-33.5"/>
		<path fill="#F8B500" d="M18.1-18.1c0.6,0,1.1-0.5,1.1-1.1v-2.3c0-0.6-0.5-1.1-1.1-1.1h-2.3c-0.6,0-1.1,0.5-1.1,1.1v2.3
			c0,0.6,0.5,1.1,1.1,1.1H18.1z M18.1-18.1"/>
	</g>
</g>
<g>
	<line fill="#F8B500" x1="-111.5" y1="85.2" x2="-102.5" y2="76.3"/>
	<line fill="#F8B500" x1="-111.5" y1="76.3" x2="-102.5" y2="85.2"/>
	<g>
		<path d="M-111.5,85.7c-0.1,0-0.3-0.1-0.4-0.1c-0.2-0.2-0.2-0.5,0-0.7l8.9-8.9c0.2-0.2,0.5-0.2,0.7,0c0.2,0.2,0.2,0.5,0,0.7
			l-8.9,8.9C-111.2,85.7-111.3,85.7-111.5,85.7L-111.5,85.7z M-111.5,85.7"/>
		<path d="M-102.5,85.7c-0.1,0-0.3-0.1-0.4-0.1l-8.9-8.9c-0.2-0.2-0.2-0.5,0-0.7c0.2-0.2,0.5-0.2,0.7,0l8.9,8.9
			c0.2,0.2,0.2,0.5,0,0.7C-102.3,85.7-102.4,85.7-102.5,85.7L-102.5,85.7z M-102.5,85.7"/>
	</g>
	<path fill="#9FA0A0" d="M-107,95.8c-8.3,0-15-6.7-15-15s6.7-15,15-15c8.3,0,15,6.7,15,15S-98.7,95.8-107,95.8L-107,95.8z
		 M-107,66.8c-7.7,0-14,6.3-14,14c0,7.7,6.3,14,14,14c7.7,0,14-6.3,14-14C-93,73.1-99.3,66.8-107,66.8L-107,66.8z M-107,66.8"/>
</g>
<g>
	<line fill="#E60012" x1="10.5" y1="19.5" x2="19.5" y2="10.5"/>
	<line fill="#E60012" x1="10.5" y1="10.5" x2="19.5" y2="19.5"/>
	<g>
		<path fill="#E60012" d="M10.5,20c-0.1,0-0.3-0.1-0.4-0.1c-0.2-0.2-0.2-0.5,0-0.7l8.9-8.9c0.2-0.2,0.5-0.2,0.7,0
			c0.2,0.2,0.2,0.5,0,0.7l-8.9,8.9C10.8,19.9,10.7,20,10.5,20L10.5,20z M10.5,20"/>
		<path fill="#E60012" d="M19.5,20c-0.1,0-0.3-0.1-0.4-0.1l-8.9-8.9c-0.2-0.2-0.2-0.5,0-0.7c0.2-0.2,0.5-0.2,0.7,0l8.9,8.9
			c0.2,0.2,0.2,0.5,0,0.7C19.7,19.9,19.6,20,19.5,20L19.5,20z M19.5,20"/>
	</g>
	<path fill="#E60012" d="M15,30C6.7,30,0,23.3,0,15S6.7,0,15,0c8.3,0,15,6.7,15,15S23.3,30,15,30L15,30z M15,1C7.3,1,1,7.3,1,15
		c0,7.7,6.3,14,14,14c7.7,0,14-6.3,14-14C29,7.3,22.7,1,15,1L15,1z M15,1"/>
</g>
<g>
	<path fill="#9FA0A0" d="M30.8,117.5c-8.3,0-15-6.7-15-15c0-8.3,6.7-15,15-15c8.3,0,15,6.7,15,15C45.8,110.8,39.1,117.5,30.8,117.5
		L30.8,117.5z M30.8,88.5c-7.7,0-14,6.3-14,14c0,7.7,6.3,14,14,14c7.7,0,14-6.3,14-14C44.8,94.8,38.5,88.5,30.8,88.5L30.8,88.5z
		 M30.8,88.5"/>
	<g>
		<path d="M36.3,100.3c0,0.1,0,0.3-0.1,0.4l-5,5c-0.2,0.2-0.5,0.2-0.7,0l-5-5c-0.2-0.2-0.2-0.5,0-0.7c0.2-0.2,0.5-0.2,0.7,0l4.6,4.6
			l4.6-4.6c0.2-0.2,0.5-0.2,0.7,0C36.3,100.1,36.3,100.2,36.3,100.3L36.3,100.3z M36.3,100.3"/>
		<path d="M36,109.9H25.6c-0.2,0-0.4-0.2-0.4-0.5c0-0.3,0.2-0.5,0.4-0.5H36c0.2,0,0.4,0.2,0.4,0.5C36.4,109.7,36.3,109.9,36,109.9
			L36,109.9z M36,109.9"/>
		<path d="M30.3,104.4V93.9c0-0.2,0.2-0.4,0.5-0.4c0.3,0,0.5,0.2,0.5,0.4v10.4c0,0.2-0.2,0.4-0.5,0.4
			C30.5,104.8,30.3,104.6,30.3,104.4L30.3,104.4z M30.3,104.4"/>
	</g>
</g>
<g>
	<g>
		<path fill="#9FA0A0" d="M32.4,35v28.3h13.4h0.6h0l7.8-8V35H32.4z M33,62.7V35.6h20.6v19.2h-7.8v7.9H33z M46.4,62.4v-7.1h6.8
			L46.4,62.4z"/>
		<path fill="#9FA0A0" d="M46.4,63.4H32.2V34.8h22.1v20.5L46.4,63.4z M32.5,63.1h13.8l7.7-8v-20H32.5V63.1z M45.9,62.8H32.8V35.4
			h20.9v19.5h-7.8V62.8z M33.1,62.5h12.5v-7.9h7.8V35.7H33.1V62.5z M46.2,62.8v-7.6h7.3L46.2,62.8z M46.5,55.5V62l6.3-6.5H46.5z"/>
	</g>
	<g>
		<circle fill="#E60012" cx="35" cy="48.7" r="10.7"/>
		<path fill="#FFFFFF" d="M42.8,49.7c-0.3-0.6-1.3-0.8-2.6-0.8c-0.5,0-0.9,0.1-1.5,0.1c-0.5-0.2-0.7-0.5-1-0.7
			c-0.7-0.7-1.4-1.7-1.8-3v-0.1c0.5-1.5,0.8-3.3,0-4.1c-0.2-0.1-0.5-0.2-0.7-0.2h-0.2c-0.5,0-0.8,0.5-0.9,0.9
			c-0.5,1.6-0.2,2.4,0.2,3.8c-0.3,1-0.7,2.2-1.3,3.3c-0.5,0.8-0.8,1.5-1.2,2.1c-0.5,0.2-0.8,0.5-1,0.6c-1.4,0.8-2.1,1.8-2.2,2.4
			c0,0.2,0,0.3,0.1,0.6v0.1l0.6,0.3c0.1,0.1,0.2,0.1,0.5,0.1c0.9,0,2.1-1.1,3.4-3.6c0.1-0.1,0.1-0.1,0.2-0.1
			c1.1-0.5,2.6-0.7,4.6-0.9c1.2,0.6,2.5,0.8,3.4,0.8c0.5,0,0.8-0.1,1-0.2c0.2-0.2,0.3-0.6,0.5-0.7C42.9,50.2,42.9,49.9,42.8,49.7z
			 M29.4,54.1c0.1-0.3,0.7-1.2,1.5-1.8c0.1-0.1,0.3-0.2,0.6-0.3C30.7,53.3,30,53.9,29.4,54.1z M34.9,41.4c0.1,0,0.1-0.1,0.1-0.1
			l0.1,0.1v0.1c0.1,0.1,0.1,0.6,0,1.2v0.2c0,0.3-0.1,0.6-0.2,1C34.6,42.9,34.6,42.1,34.9,41.4z M33.4,50.6h-0.2
			c0.2-0.5,0.5-0.8,0.7-1.3c0.5-1,0.9-2,1.1-2.8c0.5,1,1.2,2,1.7,2.6c0.1,0.1,0.2,0.2,0.5,0.3C36.3,49.7,34.9,50,33.4,50.6z
			 M42.1,50.4h-0.3c-0.6,0-1.4-0.2-2.2-0.6v-0.1h0.2c1.6,0,2.1,0.3,2.2,0.5c0,0.1,0.1,0.1,0.1,0.1V50.4z"/>
	</g>
</g>
<g>
	<g>
		<path fill="#B5B5B6" d="M68.9-14.7h-1.7l-1.5-3.9h-5.8l-1.4,3.9h-1.7l5.2-13.6h1.5L68.9-14.7z M65.3-19.9l-2.2-5.9
			c-0.1-0.2-0.1-0.5-0.2-0.9h0c-0.1,0.4-0.1,0.7-0.2,0.9l-2.1,5.9H65.3z"/>
	</g>
	<g>
		<path fill="#9FA0A0" d="M48.2-33.9v29.7h14.1h0.6h0l8.2-8.4v-21.3H48.2z M48.8-4.9v-28.4h21.6v20.1h-8.2v8.3H48.8z M62.9-5.1v-7.4
			h7.2L62.9-5.1z"/>
		<path fill="#9FA0A0" d="M63-4.1H48.1v-30h23.2v21.5L63-4.1z M48.4-4.4h14.5l8.1-8.3v-21H48.4V-4.4z M62.4-4.7H48.7v-28.7h21.9V-13
			h-8.2V-4.7z M49-5h13.1v-8.3h8.2v-19.8H49V-5z M62.7-4.7v-7.9h7.7L62.7-4.7z M63.1-12.4v6.8l6.6-6.8H63.1z"/>
	</g>
	<g>
		<path d="M65.6-16.3H64l-1.5-3.9h-5.8l-1.4,3.9h-1.7l5.2-13.6h1.5L65.6-16.3z M62-21.5l-2.2-5.9c-0.1-0.2-0.1-0.5-0.2-0.9h0
			c-0.1,0.4-0.1,0.7-0.2,0.9l-2.1,5.9H62z"/>
	</g>
</g>
<g>
	<g>
		<path fill="#9FA0A0" d="M-54.8-51.7V-22h14.1h0.6h0l8.2-8.4v-21.3H-54.8z M-54.2-22.6v-28.4h21.6v20.1h-8.2v8.3H-54.2z
			 M-40.1-22.9v-7.4h7.2L-40.1-22.9z"/>
		<path fill="#9FA0A0" d="M-40-21.8H-55v-30h23.2v21.5L-40-21.8z M-54.7-22.2h14.5l8.1-8.3v-21h-22.5V-22.2z M-40.6-22.5h-13.7
			v-28.7h21.9v20.5h-8.2V-22.5z M-54-22.8h13.1v-8.3h8.2v-19.8H-54V-22.8z M-40.3-22.5v-7.9h7.7L-40.3-22.5z M-40-30.1v6.8l6.6-6.8
			H-40z"/>
	</g>
	<g>
		<path d="M-38.1-35.5h-1.4l-1.3-3.4H-46l-1.2,3.4h-1.5l4.6-11.9h1.3L-38.1-35.5z M-41.3-40l-1.9-5.1c-0.1-0.2-0.1-0.4-0.2-0.8h0
			c-0.1,0.4-0.1,0.6-0.2,0.8l-1.9,5.1H-41.3z"/>
	</g>
	<polyline fill="none" stroke="#000000" stroke-width="0.75" stroke-miterlimit="10" points="-48.9,-48.4 -51.3,-48.4 -51.3,-45.8 	
		"/>
	<polyline fill="none" stroke="#000000" stroke-width="0.75" stroke-miterlimit="10" points="-37.8,-48.4 -35.4,-48.4 -35.4,-45.8 	
		"/>
	<polyline fill="none" stroke="#000000" stroke-width="0.75" stroke-miterlimit="10" points="-48.9,-32.8 -51.3,-32.8 -51.3,-35.4 	
		"/>
	<polyline fill="none" stroke="#000000" stroke-width="0.75" stroke-miterlimit="10" points="-37.8,-32.8 -35.4,-32.8 -35.4,-35.4 	
		"/>
</g>
<g>
	<g>
		<path fill="#9FA0A0" d="M-10.1,43.2v28.3H3.3h0.6h0l7.8-8V43.2H-10.1z M-9.5,70.9V43.8h20.6V63H3.3v7.9H-9.5z M3.9,70.6v-7.1h6.8
			L3.9,70.6z"/>
		<path fill="#9FA0A0" d="M4,71.6h-14.2V43h22.1v20.5L4,71.6z M-10,71.3H3.8l7.7-8v-20H-10V71.3z M3.4,71H-9.7V43.6h20.9v19.5H3.4
			V71z M-9.4,70.7H3.1v-7.9h7.8V43.9H-9.4V70.7z M3.7,71v-7.6h7.3L3.7,71z M4,63.7v6.5l6.3-6.5H4z"/>
	</g>
	<g>
		<circle fill="#8FC31F" cx="-7.5" cy="56.9" r="10.7"/>
		<polygon fill="#FFFFFF" points="-2.4,51.3 -5.4,51.3 -7.5,54.4 -9.6,51.3 -12.6,51.3 -9,56.6 -13,62.5 -7.2,62.5 -7.2,60.5 
			-8.6,60.5 -7.5,58.9 -5,62.5 -1.9,62.5 -5.9,56.6 		"/>
	</g>
</g>
<g>
	<g>
		<path fill="#9FA0A0" d="M111.1-27V1.3h13.4h0.6h0l7.8-8V-27H111.1z M111.7,0.7v-27.1h20.6v19.2h-7.8v7.9H111.7z M125,0.4v-7.1h6.8
			L125,0.4z"/>
		<path fill="#9FA0A0" d="M125.1,1.4h-14.2v-28.6H133v20.5L125.1,1.4z M111.2,1.1H125l7.7-8v-20h-21.5V1.1z M124.6,0.8h-13.1v-27.4
			h20.9v19.5h-7.8V0.8z M111.8,0.5h12.5v-7.9h7.8v-18.9h-20.3V0.5z M124.9,0.8v-7.6h7.3L124.9,0.8z M125.2-6.5V0l6.3-6.5H125.2z"/>
	</g>
	<g>
		<circle fill="#00A0E9" cx="113.7" cy="-13.3" r="10.7"/>
		<g>
			<path fill="#FFFFFF" d="M112.6-19.6c0.2-0.4,0.8-0.6,1.3-0.6s1.2,0.9,1.6,1.3c0.4,0.5,0.1,0.9-0.2,0.6c-0.3-0.3-0.9-0.9-1.6-0.9
				C112.9-19.2,112.5-19.4,112.6-19.6z"/>
			<path fill="#FFFFFF" d="M117.8-15.9c-0.1-0.6-1.1-1.1-1.8-1.3c-0.8-0.2-1.2-1.1-2.2-1.4c-1-0.3-1.8-0.1-2.4,0
				c-0.6,0.1-1.2,0.7-0.8,1.4c0.2,0.4,2.2-0.5,3-0.3c0.8,0.3,0.1,0.3-0.7,0.7c-1.1,0.6-2,1.5-2.2,2.3c-0.3,1.4,0.2,2.5,1.3,2.8
				c1.2,0.3,2.5-0.1,3.6-0.9c0.9-0.6,1-1.8,1-2.5c0-0.7-0.1-0.9,0.5-0.7s0.3,0.5,0.4,0.7C117.7-14.7,117.8-15.2,117.8-15.9z
				 M115.1-13.4c-0.4,0.5-1.4,0.9-2.1,0.6c-0.5-0.2-0.7-1.3-0.4-1.9c0.2-0.4,0.8-1,1.8-0.9C116-15.7,115.5-13.9,115.1-13.4z"/>
			<circle fill="#FFFFFF" cx="113.7" cy="-9.4" r="0.7"/>
			<path fill="#FFFFFF" d="M116.8-8c0,0-4.3,0-4.8,0c-0.5,0-0.5-0.4-0.5-0.7c0,0,0-0.4,0-0.4c0-0.5-0.4-1-1-1c-0.5,0-1,0.4-1,1v1.4
				c0,0.7,0.6,1.2,1.2,1.2h6c0.4,0,0.8-0.3,0.8-0.8S117.3-8,116.8-8z"/>
		</g>
	</g>
</g>
<g>
	<rect x="79.6" y="85.1" fill="#F39800" width="22.9" height="22.9"/>
	<rect x="82.4" y="87.4" fill="#FFFFFF" width="17.4" height="9.5"/>
	<g>
		<rect x="83.4" y="88.4" fill="#9FA0A0" width="15.4" height="0.9"/>
		<rect x="83.4" y="90.6" fill="#9FA0A0" width="15.4" height="0.9"/>
		<rect x="83.4" y="92.7" fill="#9FA0A0" width="15.4" height="0.9"/>
		<rect x="83.4" y="94.9" fill="#9FA0A0" width="15.4" height="0.9"/>
	</g>
	<rect x="83" y="98.5" fill="#FFFFFF" width="16.2" height="8"/>
	<rect x="84.1" y="99.6" fill="#9FA0A0" width="3.1" height="5.8"/>
	<path d="M102.4,105.2c-0.7,0-1.8-0.1-2.8-1c-1-0.9-1.4-2.1-1.3-3.8l0-9.4h2.9v9.5c0,0.6,0,1.3,0.4,1.6c0.4,0.3,1,0.3,1,0.3
		c0.7-0.1,0.9-1.7,0.9-2.3v-15c0-2.4-1.9-4.3-4.3-4.3c-2.4,0-4.3,1.9-4.3,4.3h-2.9c0-4,3.2-7.2,7.2-7.2c4,0,7.2,3.2,7.2,7.2v14.9
		c0,1.7-0.7,4.7-3.4,5.1C102.8,105.2,102.6,105.2,102.4,105.2z"/>
</g>
<g>
	<polygon fill="#808080" points="-48.8,90.8 -61,90.8 -61,65.8 -41.9,65.8 -36,72.2 -36,75.3 -36.7,75.3 -36.7,72.5 -42.2,66.5 
		-60.3,66.5 -60.3,90.1 -48.8,90.1 	"/>
	<rect x="-58.3" y="66.1" fill="#808080" width="13.8" height="11.2"/>
	<rect x="-56.6" y="67.9" fill="#FFFFFF" width="2.5" height="7.6"/>
	<g>
		<rect x="-42.7" y="78.3" fill="#F39800" width="6.8" height="11.1"/>
		<polygon fill="#F39800" points="-46.5,87.4 -32.1,87.4 -39.3,95.8 		"/>
	</g>
</g>
</svg>
