<?xml version="1.0" encoding="utf-8"?>
<!-- Generator: Adobe Illustrator 18.1.1, SVG Export Plug-In . SVG Version: 6.00 Build 0)  -->
<svg version="1.1" id="레이어_1" xmlns="http://www.w3.org/2000/svg" xmlns:xlink="http://www.w3.org/1999/xlink" x="0px"
	 y="0px" viewBox="0 0 30 30" enable-background="new 0 0 30 30" xml:space="preserve">
<g>
	<path fill="#F8B500" d="M-96.7,12.5v1.7h-20.6v-1.7c-1.9,0-3.4,1.5-3.4,3.4v10.3c0,1,0.8,1.7,1.7,1.7H-95c1,0,1.7-0.8,1.7-1.7V15.9
		C-93.3,14-94.8,12.5-96.7,12.5L-96.7,12.5z M-98.4,24.5c0,1-0.8,1.7-1.7,1.7h-13.8c-0.9,0-1.7-0.8-1.7-1.7v-1.7h17.2V24.5z
		 M-95.8,19.4h-1.7c-0.5,0-0.9-0.4-0.9-0.9s0.4-0.9,0.9-0.9h1.7c0.5,0,0.9,0.4,0.9,0.9S-95.4,19.4-95.8,19.4L-95.8,19.4z
		 M-95.8,19.4"/>
	<g>
		<path fill="#9FA0A0" d="M-98.4,0.8h-17.2v12h17.2V0.8z M-99.4,11.8h-15.2v-10h15.2V11.8z M-100.1,11.1"/>
		<rect x="-112.5" y="3.7" fill="#9FA0A0" width="10.9" height="1"/>
		<rect x="-112.5" y="8.9" fill="#9FA0A0" width="10.9" height="1"/>
		<rect x="-112.5" y="6.3" fill="#9FA0A0" width="10.9" height="1"/>
	</g>
</g>
<g>
	<path fill="#F8B500" d="M-58,1.7h-2.1v8.5h-14.6V1.7h-2.1c-2.1,0-3.9,1.7-3.9,3.8v18.8c0,2.1,1.7,3.8,3.9,3.8H-58
		c2.1,0,3.9-1.7,3.9-3.8V5.5C-54.1,3.4-55.9,1.7-58,1.7z M-58.5,24.1c0,1.5-1.2,2.6-2.7,2.6h-12.4c-1.5,0-2.7-1.2-2.7-2.6v-5.3
		c0-1.5,1.2-2.7,2.7-2.7h12.4c1.5,0,2.7,1.2,2.7,2.7V24.1z"/>
	<g>
		<rect x="-73.1" y="2.9" fill="#B5B5B6" width="2.7" height="6"/>
	</g>
	<g>
		<rect x="-74.9" y="21.2" fill="#B5B5B6" width="15.1" height="0.7"/>
		<rect x="-74.9" y="23.3" fill="#B5B5B6" width="15.1" height="0.7"/>
		<rect x="-74.9" y="19" fill="#B5B5B6" width="15.1" height="0.7"/>
	</g>
	<path fill-rule="evenodd" clip-rule="evenodd" fill="#0068B7" d="M-63.6,6.3h2.6l-4.1,2.6l-4.1-2.6h2.9V0.6c0.9,0,1.9,0,2.8,0V6.3z
		"/>
</g>
<g>
	<path fill="#9FA0A0" d="M-35.5,0c8.3,0,15,6.7,15,15c0,8.3-6.7,15-15,15c-8.3,0-15-6.7-15-15C-50.5,6.7-43.8,0-35.5,0L-35.5,0z
		 M-35.5,29c7.7,0,14-6.3,14-14c0-7.7-6.3-14-14-14c-7.7,0-14,6.3-14,14C-49.5,22.7-43.2,29-35.5,29L-35.5,29z M-35.5,29"/>
	<path d="M-37.3,9.7c0.1,0,0.3,0,0.4,0.1l5,5c0.2,0.2,0.2,0.5,0,0.7l-5,5c-0.2,0.2-0.5,0.2-0.7,0c-0.2-0.2-0.2-0.5,0-0.7l4.6-4.6
		l-4.6-4.6c-0.2-0.2-0.2-0.5,0-0.7C-37.5,9.8-37.4,9.7-37.3,9.7L-37.3,9.7z M-37.3,9.7"/>
</g>
<g>
	<path fill="#9FA0A0" d="M-35.5,38.4c8.3,0,15,6.7,15,15c0,8.3-6.7,15-15,15c-8.3,0-15-6.7-15-15C-50.5,45.1-43.8,38.4-35.5,38.4
		L-35.5,38.4z M-35.5,67.4c7.7,0,14-6.3,14-14c0-7.7-6.3-14-14-14c-7.7,0-14,6.3-14,14C-49.5,61.1-43.2,67.4-35.5,67.4L-35.5,67.4z
		 M-35.5,67.4"/>
	<g>
		<path d="M-40.1,47.9c0.1,0,0.3,0,0.4,0.1l5,5c0.2,0.2,0.2,0.5,0,0.7l-5,5c-0.2,0.2-0.5,0.2-0.7,0c-0.2-0.2-0.2-0.5,0-0.7l4.6-4.6
			l-4.6-4.6c-0.2-0.2-0.2-0.5,0-0.7C-40.4,48-40.2,47.9-40.1,47.9L-40.1,47.9z M-40.1,47.9"/>
		<path d="M-30.5,48.2v10.4c0,0.2-0.2,0.4-0.5,0.4c-0.3,0-0.5-0.2-0.5-0.4V48.2c0-0.2,0.2-0.4,0.5-0.4C-30.7,47.8-30.5,48-30.5,48.2
			L-30.5,48.2z M-30.5,48.2"/>
	</g>
</g>
<g>
	<path fill="#F39800" d="M130,61.3c8.3,0,15,6.7,15,15c0,8.3-6.7,15-15,15c-8.3,0-15-6.7-15-15C115,68,121.8,61.3,130,61.3L130,61.3
		z M130,90.3c7.7,0,14-6.3,14-14c0-7.7-6.3-14-14-14c-7.7,0-14,6.3-14,14C116.1,84,122.3,90.3,130,90.3L130,90.3z M130,90.3"/>
	<path fill="#F39800" d="M128.3,71c0.1,0,0.3,0,0.4,0.1l5,5c0.2,0.2,0.2,0.5,0,0.7l-5,5c-0.2,0.2-0.5,0.2-0.7,0
		c-0.2-0.2-0.2-0.5,0-0.7l4.6-4.6l-4.6-4.6c-0.2-0.2-0.2-0.5,0-0.7C128,71.1,128.2,71,128.3,71L128.3,71z M128.3,71"/>
</g>
<g>
	<path fill="#F39800" d="M15,0c8.3,0,15,6.7,15,15c0,8.3-6.7,15-15,15C6.7,30,0,23.3,0,15C0,6.7,6.7,0,15,0L15,0z M15,29
		c7.7,0,14-6.3,14-14c0-7.7-6.3-14-14-14C7.3,1,1,7.3,1,15C1,22.7,7.3,29,15,29L15,29z M15,29"/>
	<g>
		<path fill="#F39800" d="M10.4,9.5c0.1,0,0.3,0,0.4,0.1l5,5c0.2,0.2,0.2,0.5,0,0.7l-5,5c-0.2,0.2-0.5,0.2-0.7,0
			c-0.2-0.2-0.2-0.5,0-0.7l4.6-4.6l-4.6-4.6c-0.2-0.2-0.2-0.5,0-0.7C10.2,9.6,10.3,9.5,10.4,9.5L10.4,9.5z M10.4,9.5"/>
		<path fill="#F39800" d="M20.1,9.8v10.4c0,0.2-0.2,0.4-0.5,0.4c-0.3,0-0.5-0.2-0.5-0.4V9.8c0-0.2,0.2-0.4,0.5-0.4
			C19.8,9.4,20.1,9.6,20.1,9.8L20.1,9.8z M20.1,9.8"/>
	</g>
</g>
<g>
	<path fill="#9FA0A0" d="M-148.3,30c-8.3,0-15-6.7-15-15c0-8.3,6.7-15,15-15c8.3,0,15,6.7,15,15C-133.3,23.3-140.1,30-148.3,30
		L-148.3,30z M-148.3,1c-7.7,0-14,6.3-14,14c0,7.7,6.3,14,14,14c7.7,0,14-6.3,14-14C-134.4,7.3-140.6,1-148.3,1L-148.3,1z M-148.3,1
		"/>
	<path d="M-146.6,20.3c-0.1,0-0.3,0-0.4-0.1l-5-5c-0.2-0.2-0.2-0.5,0-0.7l5-5c0.2-0.2,0.5-0.2,0.7,0c0.2,0.2,0.2,0.5,0,0.7l-4.6,4.6
		l4.6,4.6c0.2,0.2,0.2,0.5,0,0.7C-146.3,20.2-146.5,20.3-146.6,20.3L-146.6,20.3z M-146.6,20.3"/>
</g>
<g>
	<path fill="#9FA0A0" d="M-153.1,71.8c-8.3,0-15-6.7-15-15c0-8.3,6.7-15,15-15c8.3,0,15,6.7,15,15
		C-138.1,65.1-144.8,71.8-153.1,71.8L-153.1,71.8z M-153.1,42.8c-7.7,0-14,6.3-14,14c0,7.7,6.3,14,14,14c7.7,0,14-6.3,14-14
		C-139.1,49.1-145.4,42.8-153.1,42.8L-153.1,42.8z M-153.1,42.8"/>
	<g>
		<path d="M-148.5,62.3c-0.1,0-0.3,0-0.4-0.1l-5-5c-0.2-0.2-0.2-0.5,0-0.7l5-5c0.2-0.2,0.5-0.2,0.7,0c0.2,0.2,0.2,0.5,0,0.7
			l-4.6,4.6l4.6,4.6c0.2,0.2,0.2,0.5,0,0.7C-148.2,62.3-148.4,62.3-148.5,62.3L-148.5,62.3z M-148.5,62.3"/>
		<path d="M-158.1,62V51.6c0-0.2,0.2-0.4,0.5-0.4c0.3,0,0.5,0.2,0.5,0.4V62c0,0.2-0.2,0.4-0.5,0.4C-157.9,62.5-158.1,62.3-158.1,62
			L-158.1,62z M-158.1,62"/>
	</g>
</g>
<g>
	<path fill="#F39800" d="M61.9,156.8c-8.3,0-15-6.7-15-15c0-8.3,6.7-15,15-15c8.3,0,15,6.7,15,15C76.9,150.1,70.2,156.8,61.9,156.8
		L61.9,156.8z M61.9,127.8c-7.7,0-14,6.3-14,14c0,7.7,6.3,14,14,14c7.7,0,14-6.3,14-14C75.9,134.1,69.6,127.8,61.9,127.8L61.9,127.8
		z M61.9,127.8"/>
	<path fill="#F39800" d="M63.6,147.1c-0.1,0-0.3,0-0.4-0.1l-5-5c-0.2-0.2-0.2-0.5,0-0.7l5-5c0.2-0.2,0.5-0.2,0.7,0
		c0.2,0.2,0.2,0.5,0,0.7l-4.6,4.6l4.6,4.6c0.2,0.2,0.2,0.5,0,0.7C63.9,147,63.8,147.1,63.6,147.1L63.6,147.1z M63.6,147.1"/>
</g>
<g>
	<path fill="#F39800" d="M83.9,124.4c-8.3,0-15-6.7-15-15c0-8.3,6.7-15,15-15c8.3,0,15,6.7,15,15C98.9,117.7,92.2,124.4,83.9,124.4
		L83.9,124.4z M83.9,95.5c-7.7,0-14,6.3-14,14c0,7.7,6.3,14,14,14c7.7,0,14-6.3,14-14C97.9,101.7,91.6,95.5,83.9,95.5L83.9,95.5z
		 M83.9,95.5"/>
	<g>
		<path fill="#F39800" d="M88.4,114.9c-0.1,0-0.3,0-0.4-0.1l-5-5c-0.2-0.2-0.2-0.5,0-0.7l5-5c0.2-0.2,0.5-0.2,0.7,0
			c0.2,0.2,0.2,0.5,0,0.7l-4.6,4.6l4.6,4.6c0.2,0.2,0.2,0.5,0,0.7C88.7,114.9,88.6,114.9,88.4,114.9L88.4,114.9z M88.4,114.9"/>
		<path fill="#F39800" d="M78.8,114.6v-10.4c0-0.2,0.2-0.4,0.5-0.4c0.3,0,0.5,0.2,0.5,0.4v10.4c0,0.2-0.2,0.4-0.5,0.4
			C79,115.1,78.8,114.9,78.8,114.6L78.8,114.6z M78.8,114.6"/>
	</g>
</g>
<rect fill="none" width="30" height="30"/>
<g>
	<g>
		<path fill="#9FA0A0" d="M29.4-19.6c2.5,0,4.6-2.1,4.6-4.6c0-2.5-2.1-4.6-4.6-4.6c-2.5,0-4.6,2.1-4.6,4.6
			C24.8-21.6,26.9-19.6,29.4-19.6L29.4-19.6z M29.4-19.6"/>
		<path fill="#9FA0A0" d="M25.5-18.7c-1.8,0-3.2,1.4-3.2,3.2v3.6c0,0.3,0.3,0.6,0.6,0.6h13c0.3,0,0.6-0.3,0.6-0.6v-3.5
			c0.1-0.1,0.1-0.2,0.1-0.3l2.5-6.6c0.1-0.2,0.1-0.5,0.1-0.7v-7.5c0-1.1-0.9-2-2-2c-1.1,0-2,0.9-2,2v7.1l-1.8,4.7H25.5z M25.5-18.7"
			/>
	</g>
	<g>
		<path fill="#F8B500" d="M10.8-33.5h2.6c0.5,0,1-0.4,1.1-0.9c0.1-1,0.4-1.7,0.9-2.1c0.4-0.4,1-0.6,1.7-0.6c0.8,0,1.4,0.2,1.9,0.7
			c0.5,0.5,0.7,1,0.7,1.7c0,0.3-0.1,0.7-0.2,1c-0.1,0.2-0.4,0.6-1.6,1.7c-1.1,1-1.9,1.9-2.4,2.8c-0.5,0.9-0.7,2.2-0.7,4.1
			c0,0.6,0.5,1.1,1.1,1.1h2.3c0.6,0,1.1-0.5,1.1-1.1c0-1.4,0.2-2,0.3-2.2c0.1-0.2,0.4-0.7,1.7-1.8c1.2-1,2-1.9,2.5-2.8
			c0.5-0.9,0.7-1.9,0.7-2.9c0-1.8-0.7-3.4-2.1-4.6c-1.3-1.2-3.1-1.7-5.2-1.7c-2,0-3.7,0.6-5,1.8c-1.3,1.2-2.1,2.8-2.3,4.8
			C9.7-34.1,10.1-33.5,10.8-33.5L10.8-33.5z M10.8-33.5"/>
		<path fill="#F8B500" d="M18.1-18.1c0.6,0,1.1-0.5,1.1-1.1v-2.3c0-0.6-0.5-1.1-1.1-1.1h-2.3c-0.6,0-1.1,0.5-1.1,1.1v2.3
			c0,0.6,0.5,1.1,1.1,1.1H18.1z M18.1-18.1"/>
	</g>
</g>
<g>
	<line fill="#F8B500" x1="-111.5" y1="85.2" x2="-102.5" y2="76.3"/>
	<line fill="#F8B500" x1="-111.5" y1="76.3" x2="-102.5" y2="85.2"/>
	<g>
		<path d="M-111.5,85.7c-0.1,0-0.3-0.1-0.4-0.1c-0.2-0.2-0.2-0.5,0-0.7l8.9-8.9c0.2-0.2,0.5-0.2,0.7,0c0.2,0.2,0.2,0.5,0,0.7
			l-8.9,8.9C-111.2,85.7-111.3,85.7-111.5,85.7L-111.5,85.7z M-111.5,85.7"/>
		<path d="M-102.5,85.7c-0.1,0-0.3-0.1-0.4-0.1l-8.9-8.9c-0.2-0.2-0.2-0.5,0-0.7c0.2-0.2,0.5-0.2,0.7,0l8.9,8.9
			c0.2,0.2,0.2,0.5,0,0.7C-102.3,85.7-102.4,85.7-102.5,85.7L-102.5,85.7z M-102.5,85.7"/>
	</g>
	<path fill="#9FA0A0" d="M-107,95.8c-8.3,0-15-6.7-15-15s6.7-15,15-15c8.3,0,15,6.7,15,15S-98.7,95.8-107,95.8L-107,95.8z
		 M-107,66.8c-7.7,0-14,6.3-14,14c0,7.7,6.3,14,14,14c7.7,0,14-6.3,14-14C-93,73.1-99.3,66.8-107,66.8L-107,66.8z M-107,66.8"/>
</g>
<g>
	<line fill="#E60012" x1="123.1" y1="19.5" x2="132.1" y2="10.5"/>
	<line fill="#E60012" x1="123.1" y1="10.5" x2="132.1" y2="19.5"/>
	<g>
		<path fill="#E60012" d="M123.1,20c-0.1,0-0.3-0.1-0.4-0.1c-0.2-0.2-0.2-0.5,0-0.7l8.9-8.9c0.2-0.2,0.5-0.2,0.7,0
			c0.2,0.2,0.2,0.5,0,0.7l-8.9,8.9C123.4,19.9,123.3,20,123.1,20L123.1,20z M123.1,20"/>
		<path fill="#E60012" d="M132.1,20c-0.1,0-0.3-0.1-0.4-0.1l-8.9-8.9c-0.2-0.2-0.2-0.5,0-0.7c0.2-0.2,0.5-0.2,0.7,0l8.9,8.9
			c0.2,0.2,0.2,0.5,0,0.7C132.3,19.9,132.2,20,132.1,20L132.1,20z M132.1,20"/>
	</g>
	<path fill="#E60012" d="M127.6,30c-8.3,0-15-6.7-15-15s6.7-15,15-15c8.3,0,15,6.7,15,15S135.9,30,127.6,30L127.6,30z M127.6,1
		c-7.7,0-14,6.3-14,14c0,7.7,6.3,14,14,14c7.7,0,14-6.3,14-14C141.6,7.3,135.3,1,127.6,1L127.6,1z M127.6,1"/>
</g>
<g>
	<path fill="#9FA0A0" d="M30.8,117.5c-8.3,0-15-6.7-15-15c0-8.3,6.7-15,15-15c8.3,0,15,6.7,15,15C45.8,110.8,39.1,117.5,30.8,117.5
		L30.8,117.5z M30.8,88.5c-7.7,0-14,6.3-14,14c0,7.7,6.3,14,14,14c7.7,0,14-6.3,14-14C44.8,94.8,38.5,88.5,30.8,88.5L30.8,88.5z
		 M30.8,88.5"/>
	<g>
		<path d="M36.3,100.3c0,0.1,0,0.3-0.1,0.4l-5,5c-0.2,0.2-0.5,0.2-0.7,0l-5-5c-0.2-0.2-0.2-0.5,0-0.7c0.2-0.2,0.5-0.2,0.7,0l4.6,4.6
			l4.6-4.6c0.2-0.2,0.5-0.2,0.7,0C36.3,100.1,36.3,100.2,36.3,100.3L36.3,100.3z M36.3,100.3"/>
		<path d="M36,109.9H25.6c-0.2,0-0.4-0.2-0.4-0.5c0-0.3,0.2-0.5,0.4-0.5H36c0.2,0,0.4,0.2,0.4,0.5C36.4,109.7,36.3,109.9,36,109.9
			L36,109.9z M36,109.9"/>
		<path d="M30.3,104.4V93.9c0-0.2,0.2-0.4,0.5-0.4c0.3,0,0.5,0.2,0.5,0.4v10.4c0,0.2-0.2,0.4-0.5,0.4
			C30.5,104.8,30.3,104.6,30.3,104.4L30.3,104.4z M30.3,104.4"/>
	</g>
</g>
<g>
	<g>
		<path fill="#B5B5B6" d="M68.9-14.7h-1.7l-1.5-3.9h-5.8l-1.4,3.9h-1.7l5.2-13.6h1.5L68.9-14.7z M65.3-19.9l-2.2-5.9
			c-0.1-0.2-0.1-0.5-0.2-0.9h0c-0.1,0.4-0.1,0.7-0.2,0.9l-2.1,5.9H65.3z"/>
	</g>
	<g>
		<path fill="#9FA0A0" d="M48.2-33.9v29.7h14.1h0.6h0l8.2-8.4v-21.3H48.2z M48.8-4.9v-28.4h21.6v20.1h-8.2v8.3H48.8z M62.9-5.1v-7.4
			h7.2L62.9-5.1z"/>
		<path fill="#9FA0A0" d="M63-4.1H48.1v-30h23.2v21.5L63-4.1z M48.4-4.4h14.5l8.1-8.3v-21H48.4V-4.4z M62.4-4.7H48.7v-28.7h21.9V-13
			h-8.2V-4.7z M49-5h13.1v-8.3h8.2v-19.8H49V-5z M62.7-4.7v-7.9h7.7L62.7-4.7z M63.1-12.4v6.8l6.6-6.8H63.1z"/>
	</g>
	<g>
		<path d="M65.6-16.3H64l-1.5-3.9h-5.8l-1.4,3.9h-1.7l5.2-13.6h1.5L65.6-16.3z M62-21.5l-2.2-5.9c-0.1-0.2-0.1-0.5-0.2-0.9h0
			c-0.1,0.4-0.1,0.7-0.2,0.9l-2.1,5.9H62z"/>
	</g>
</g>
<g>
	<g>
		<path fill="#9FA0A0" d="M-54.8-51.7V-22h14.1h0.6h0l8.2-8.4v-21.3H-54.8z M-54.2-22.6v-28.4h21.6v20.1h-8.2v8.3H-54.2z
			 M-40.1-22.9v-7.4h7.2L-40.1-22.9z"/>
		<path fill="#9FA0A0" d="M-40-21.8H-55v-30h23.2v21.5L-40-21.8z M-54.7-22.2h14.5l8.1-8.3v-21h-22.5V-22.2z M-40.6-22.5h-13.7
			v-28.7h21.9v20.5h-8.2V-22.5z M-54-22.8h13.1v-8.3h8.2v-19.8H-54V-22.8z M-40.3-22.5v-7.9h7.7L-40.3-22.5z M-40-30.1v6.8l6.6-6.8
			H-40z"/>
	</g>
	<g>
		<path d="M-38.1-35.5h-1.4l-1.3-3.4H-46l-1.2,3.4h-1.5l4.6-11.9h1.3L-38.1-35.5z M-41.3-40l-1.9-5.1c-0.1-0.2-0.1-0.4-0.2-0.8h0
			c-0.1,0.4-0.1,0.6-0.2,0.8l-1.9,5.1H-41.3z"/>
	</g>
	<polyline fill="none" stroke="#000000" stroke-width="0.75" stroke-miterlimit="10" points="-48.9,-48.4 -51.3,-48.4 -51.3,-45.8 	
		"/>
	<polyline fill="none" stroke="#000000" stroke-width="0.75" stroke-miterlimit="10" points="-37.8,-48.4 -35.4,-48.4 -35.4,-45.8 	
		"/>
	<polyline fill="none" stroke="#000000" stroke-width="0.75" stroke-miterlimit="10" points="-48.9,-32.8 -51.3,-32.8 -51.3,-35.4 	
		"/>
	<polyline fill="none" stroke="#000000" stroke-width="0.75" stroke-miterlimit="10" points="-37.8,-32.8 -35.4,-32.8 -35.4,-35.4 	
		"/>
</g>
<g>
	<polygon fill="#808080" points="-44.9,119 -57.2,119 -57.2,93.9 -38,93.9 -32.1,100.3 -32.1,103.5 -32.9,103.5 -32.9,100.6 
		-38.3,94.7 -56.4,94.7 -56.4,118.2 -44.9,118.2 	"/>
	<rect x="-54.4" y="94.3" fill="#808080" width="13.8" height="11.2"/>
	<rect x="-52.7" y="96.1" fill="#FFFFFF" width="2.5" height="7.6"/>
	<g>
		<rect x="-38.8" y="106.5" fill="#F39800" width="6.8" height="11.1"/>
		<polygon fill="#F39800" points="-42.6,115.6 -28.2,115.6 -35.5,123.9 		"/>
	</g>
</g>
<g>
	<g>
		<g>
			<path fill="#E60012" d="M244.1,19.7v-1.8h1.5v1.8H244.1z"/>
			<path fill="#E60012" d="M247,13h1.4v1c0.2-0.4,0.4-0.6,0.7-0.8c0.3-0.2,0.6-0.3,1-0.3c0.6,0,1.2,0.3,1.6,0.9
				c0.5,0.6,0.7,1.5,0.7,2.6c0,1.2-0.2,2.1-0.7,2.7s-1,0.9-1.6,0.9c-0.3,0-0.6-0.1-0.8-0.2s-0.5-0.4-0.8-0.8v3.4H247V13z
				 M248.5,16.2c0,0.8,0.1,1.3,0.4,1.7c0.2,0.4,0.5,0.5,0.9,0.5c0.3,0,0.6-0.2,0.8-0.5c0.2-0.3,0.3-0.9,0.3-1.6
				c0-0.7-0.1-1.2-0.4-1.6s-0.5-0.5-0.9-0.5c-0.4,0-0.7,0.2-0.9,0.5C248.6,15.1,248.5,15.6,248.5,16.2z"/>
			<path fill="#E60012" d="M258.7,19.7h-1.4v-1c-0.2,0.4-0.5,0.7-0.8,0.9s-0.6,0.3-0.9,0.3c-0.6,0-1.2-0.3-1.6-0.9s-0.7-1.5-0.7-2.6
				c0-1.2,0.2-2,0.7-2.6c0.4-0.6,1-0.9,1.7-0.9c0.3,0,0.6,0.1,0.9,0.2s0.5,0.4,0.7,0.7v-3.3h1.5V19.7z M254.8,16.2
				c0,0.6,0.1,1.1,0.2,1.4s0.3,0.5,0.4,0.7s0.4,0.2,0.6,0.2c0.3,0,0.6-0.2,0.8-0.5s0.4-0.9,0.4-1.6c0-0.8-0.1-1.3-0.3-1.7
				c-0.2-0.3-0.5-0.5-0.9-0.5c-0.3,0-0.6,0.2-0.9,0.5C254.9,15,254.8,15.5,254.8,16.2z"/>
			<path fill="#E60012" d="M259.5,13h0.8v-0.5c0-0.6,0.1-1.1,0.2-1.3c0.1-0.3,0.3-0.5,0.6-0.6s0.6-0.2,1-0.2c0.4,0,0.8,0.1,1.2,0.2
				l-0.2,1.2c-0.2-0.1-0.5-0.1-0.7-0.1c-0.2,0-0.4,0.1-0.5,0.2c-0.1,0.1-0.1,0.4-0.1,0.7V13h1.1v1.4h-1.1v5.3h-1.5v-5.3h-0.8V13z"/>
		</g>
	</g>
	<path fill="#9FA0A0" d="M259.4,29.8h-3v-0.9h3L259.4,29.8z M253.4,29.8h-3v-0.9h3V29.8z M247.4,29.8h-0.2c-1,0-2-0.2-2.9-0.5
		l0.3-0.8c0.8,0.3,1.7,0.4,2.6,0.4h0.2V29.8z M262.5,29.2l-0.3-0.8c0.9-0.3,1.7-0.8,2.4-1.4l0.6,0.7
		C264.4,28.3,263.5,28.8,262.5,29.2z M241.6,27.8c-0.8-0.7-1.5-1.5-2-2.4l0.8-0.5c0.5,0.8,1.1,1.5,1.8,2.1L241.6,27.8z M267.2,25.2
		l-0.8-0.4c0.5-0.8,0.8-1.7,0.9-2.7l0.9,0.1C268,23.2,267.7,24.2,267.2,25.2z M238.4,22.5c-0.1-0.5-0.1-1-0.1-1.6v-1.5h0.9v1.5
		c0,0.5,0,1,0.1,1.4L238.4,22.5z M268.3,19.1h-0.9v-3h0.9V19.1z M239.2,16.4h-0.9v-3h0.9V16.4z M268.3,13.2h-0.9v-3h0.9V13.2z
		 M239.2,10.4h-0.9V8.7c0-0.4,0-0.9,0.1-1.3l0.9,0.1c-0.1,0.4-0.1,0.8-0.1,1.2V10.4z M267.3,7.2c-0.2-0.9-0.5-1.8-1-2.6l0.8-0.5
		c0.5,0.9,0.9,1.9,1.1,2.9L267.3,7.2z M240.2,4.8l-0.8-0.4c0.5-0.9,1.2-1.7,2-2.4l0.6,0.7C241.2,3.2,240.6,4,240.2,4.8z M264.4,2.5
		c-0.7-0.6-1.6-1.1-2.5-1.4l0.3-0.8c1,0.3,1.9,0.9,2.7,1.5L264.4,2.5z M244.4,1.2l-0.3-0.8c1-0.4,2-0.6,3.1-0.6l0,0.9
		C246.2,0.7,245.3,0.8,244.4,1.2z M259.1,0.7h-3v-0.9h3V0.7z M253.2,0.7h-3v-0.9h3V0.7z"/>
</g>
<g>
	<g>
		<text transform="matrix(1 0 0 1 216.8632 141.8253)" fill="#E60012" font-family="'ArialNarrow-Bold'" font-size="13">.pdf</text>
	</g>
	<path fill="#9FA0A0" d="M232.9,151.9h-3V151h3L232.9,151.9z M226.9,151.9h-3V151h3V151.9z M220.9,151.9h-0.2c-1,0-2-0.2-2.9-0.5
		l0.3-0.8c0.8,0.3,1.7,0.4,2.6,0.4h0.2V151.9z M236,151.3l-0.3-0.8c0.9-0.3,1.7-0.8,2.4-1.4l0.6,0.7C237.9,150.4,237,151,236,151.3z
		 M215.1,149.9c-0.8-0.7-1.5-1.5-2-2.4l0.8-0.5c0.5,0.8,1.1,1.5,1.8,2.1L215.1,149.9z M240.7,147.3l-0.8-0.4
		c0.5-0.8,0.8-1.7,0.9-2.7l0.9,0.1C241.5,145.4,241.2,146.4,240.7,147.3z M211.9,144.6c-0.1-0.5-0.1-1-0.1-1.6v-1.5h0.9v1.5
		c0,0.5,0,1,0.1,1.4L211.9,144.6z M241.8,141.3h-0.9v-3h0.9V141.3z M212.7,138.5h-0.9v-3h0.9V138.5z M241.8,135.3h-0.9v-3h0.9V135.3
		z M212.7,132.5h-0.9v-1.7c0-0.4,0-0.9,0.1-1.3l0.9,0.1c-0.1,0.4-0.1,0.8-0.1,1.2V132.5z M240.8,129.4c-0.2-0.9-0.5-1.8-1-2.6
		l0.8-0.5c0.5,0.9,0.9,1.9,1.1,2.9L240.8,129.4z M213.7,126.9l-0.8-0.4c0.5-0.9,1.2-1.7,2-2.4l0.6,0.7
		C214.7,125.4,214.1,126.1,213.7,126.9z M237.9,124.6c-0.7-0.6-1.6-1.1-2.5-1.4l0.3-0.8c1,0.3,1.9,0.9,2.7,1.5L237.9,124.6z
		 M217.9,123.3l-0.3-0.8c1-0.4,2-0.6,3.1-0.6l0,0.9C219.7,122.8,218.8,123,217.9,123.3z M232.7,122.8h-3v-0.9h3V122.8z M226.7,122.8
		h-3v-0.9h3V122.8z"/>
</g>
</svg>
