<?xml version="1.0" encoding="utf-8"?>
<!-- Generator: Adobe Illustrator 19.1.1, SVG Export Plug-In . SVG Version: 6.00 Build 0)  -->
<svg version="1.1" id="레이어_1" xmlns="http://www.w3.org/2000/svg" xmlns:xlink="http://www.w3.org/1999/xlink" x="0px"
	 y="0px" viewBox="0 0 30 30" enable-background="new 0 0 30 30" xml:space="preserve">
<rect fill="none" width="30" height="30"/>
<g>
	<g>
		<path fill="#9FA0A0" d="M9,2.7v24.5h11.6h0.5h0l6.7-7V2.7H9z M9.5,26.7V3.3h17.8v16.6h-6.8v6.8H9.5z M21.1,26.5v-6.1H27L21.1,26.5
			z"/>
		<path fill="#9FA0A0" d="M21.2,27.4H8.8V2.6H28v17.7L21.2,27.4z M9.1,27.1h12l6.7-6.9V2.9H9.1V27.1z M20.7,26.9H9.4V3.1h18.1V20
			h-6.8V26.9z M9.6,26.6h10.8v-6.8h6.8V3.4H9.6V26.6z M21,26.9v-6.6h6.4L21,26.9z M21.2,20.5v5.7l5.5-5.7H21.2z"/>
	</g>
	<circle fill="#0068B7" cx="11.3" cy="14.6" r="9.3"/>
	<g>
		<g>
			<path fill="#FFFFFF" d="M17.2,10.7l-2.3,8.6H13l-1.5-5.8c-0.1-0.3-0.1-0.6-0.1-0.9h0c0,0.4-0.1,0.7-0.2,0.9l-1.6,5.8H7.7
				l-2.3-8.6h1.8l1.4,6c0.1,0.3,0.1,0.6,0.1,0.9h0c0-0.3,0.1-0.6,0.2-1l1.7-6h1.8l1.5,6c0,0.2,0.1,0.5,0.1,0.9h0
				c0-0.3,0.1-0.6,0.1-0.9l1.4-6H17.2z"/>
		</g>
		<rect x="14" y="10.7" fill="#FFFFFF" width="2.6" height="1.3"/>
	</g>
</g>
</svg>
