<?xml version="1.0" encoding="utf-8"?>
<!-- Generator: Adobe Illustrator 18.1.1, SVG Export Plug-In . SVG Version: 6.00 Build 0)  -->
<svg version="1.1" id="레이어_1" xmlns="http://www.w3.org/2000/svg" xmlns:xlink="http://www.w3.org/1999/xlink" x="0px"
	 y="0px" viewBox="0 0 30 30" enable-background="new 0 0 30 30" xml:space="preserve">
<g>
	<path fill="#F8B500" d="M-96.7,12.5v1.7h-20.6v-1.7c-1.9,0-3.4,1.5-3.4,3.4v10.3c0,1,0.8,1.7,1.7,1.7H-95c1,0,1.7-0.8,1.7-1.7V15.9
		C-93.3,14-94.8,12.5-96.7,12.5L-96.7,12.5z M-98.4,24.5c0,1-0.8,1.7-1.7,1.7h-13.8c-0.9,0-1.7-0.8-1.7-1.7v-1.7h17.2V24.5z
		 M-95.8,19.4h-1.7c-0.5,0-0.9-0.4-0.9-0.9s0.4-0.9,0.9-0.9h1.7c0.5,0,0.9,0.4,0.9,0.9S-95.4,19.4-95.8,19.4L-95.8,19.4z
		 M-95.8,19.4"/>
	<g>
		<path fill="#9FA0A0" d="M-98.4,0.8h-17.2v12h17.2V0.8z M-99.4,11.8h-15.2v-10h15.2V11.8z M-100.1,11.1"/>
		<rect x="-112.5" y="3.7" fill="#9FA0A0" width="10.9" height="1"/>
		<rect x="-112.5" y="8.9" fill="#9FA0A0" width="10.9" height="1"/>
		<rect x="-112.5" y="6.3" fill="#9FA0A0" width="10.9" height="1"/>
	</g>
</g>
<g>
	<path fill="#F8B500" d="M-58,1.7h-2.1v8.5h-14.6V1.7h-2.1c-2.1,0-3.9,1.7-3.9,3.8v18.8c0,2.1,1.7,3.8,3.9,3.8H-58
		c2.1,0,3.9-1.7,3.9-3.8V5.5C-54.1,3.4-55.9,1.7-58,1.7z M-58.5,24.1c0,1.5-1.2,2.6-2.7,2.6h-12.4c-1.5,0-2.7-1.2-2.7-2.6v-5.3
		c0-1.5,1.2-2.7,2.7-2.7h12.4c1.5,0,2.7,1.2,2.7,2.7V24.1z"/>
	<g>
		<rect x="-73.1" y="2.9" fill="#B5B5B6" width="2.7" height="6"/>
	</g>
	<g>
		<rect x="-74.9" y="21.2" fill="#B5B5B6" width="15.1" height="0.7"/>
		<rect x="-74.9" y="23.3" fill="#B5B5B6" width="15.1" height="0.7"/>
		<rect x="-74.9" y="19" fill="#B5B5B6" width="15.1" height="0.7"/>
	</g>
	<path fill-rule="evenodd" clip-rule="evenodd" fill="#0068B7" d="M-63.6,6.3h2.6l-4.1,2.6l-4.1-2.6h2.9V0.6c0.9,0,1.9,0,2.8,0V6.3z
		"/>
</g>
<g>
	<path fill="#9FA0A0" d="M-35.5,0c8.3,0,15,6.7,15,15c0,8.3-6.7,15-15,15c-8.3,0-15-6.7-15-15C-50.5,6.7-43.8,0-35.5,0L-35.5,0z
		 M-35.5,29c7.7,0,14-6.3,14-14c0-7.7-6.3-14-14-14c-7.7,0-14,6.3-14,14C-49.5,22.7-43.2,29-35.5,29L-35.5,29z M-35.5,29"/>
	<path d="M-37.3,9.7c0.1,0,0.3,0,0.4,0.1l5,5c0.2,0.2,0.2,0.5,0,0.7l-5,5c-0.2,0.2-0.5,0.2-0.7,0c-0.2-0.2-0.2-0.5,0-0.7l4.6-4.6
		l-4.6-4.6c-0.2-0.2-0.2-0.5,0-0.7C-37.5,9.8-37.4,9.7-37.3,9.7L-37.3,9.7z M-37.3,9.7"/>
</g>
<g>
	<path fill="#9FA0A0" d="M-35.5,38.4c8.3,0,15,6.7,15,15c0,8.3-6.7,15-15,15c-8.3,0-15-6.7-15-15C-50.5,45.1-43.8,38.4-35.5,38.4
		L-35.5,38.4z M-35.5,67.4c7.7,0,14-6.3,14-14c0-7.7-6.3-14-14-14c-7.7,0-14,6.3-14,14C-49.5,61.1-43.2,67.4-35.5,67.4L-35.5,67.4z
		 M-35.5,67.4"/>
	<g>
		<path d="M-40.1,47.9c0.1,0,0.3,0,0.4,0.1l5,5c0.2,0.2,0.2,0.5,0,0.7l-5,5c-0.2,0.2-0.5,0.2-0.7,0c-0.2-0.2-0.2-0.5,0-0.7l4.6-4.6
			l-4.6-4.6c-0.2-0.2-0.2-0.5,0-0.7C-40.4,48-40.2,47.9-40.1,47.9L-40.1,47.9z M-40.1,47.9"/>
		<path d="M-30.5,48.2v10.4c0,0.2-0.2,0.4-0.5,0.4c-0.3,0-0.5-0.2-0.5-0.4V48.2c0-0.2,0.2-0.4,0.5-0.4C-30.7,47.8-30.5,48-30.5,48.2
			L-30.5,48.2z M-30.5,48.2"/>
	</g>
</g>
<g>
	<path fill="#9FA0A0" d="M15,30C6.7,30,0,23.3,0,15C0,6.7,6.7,0,15,0c8.3,0,15,6.7,15,15C30,23.3,23.3,30,15,30L15,30z M15,1
		C7.3,1,1,7.3,1,15c0,7.7,6.3,14,14,14c7.7,0,14-6.3,14-14C29,7.3,22.7,1,15,1L15,1z M15,1"/>
	<path d="M16.7,20.3c-0.1,0-0.3,0-0.4-0.1l-5-5c-0.2-0.2-0.2-0.5,0-0.7l5-5c0.2-0.2,0.5-0.2,0.7,0c0.2,0.2,0.2,0.5,0,0.7l-4.6,4.6
		l4.6,4.6c0.2,0.2,0.2,0.5,0,0.7C17,20.2,16.9,20.3,16.7,20.3L16.7,20.3z M16.7,20.3"/>
</g>
<g>
	<path fill="#9FA0A0" d="M-143.7,59.9c-7.6,0-13.7-6.2-13.7-13.7c0-7.6,6.2-13.8,13.7-13.8c7.6,0,13.8,6.2,13.8,13.8
		C-129.9,53.7-136.1,59.9-143.7,59.9L-143.7,59.9z M-143.7,33.3c-7.1,0-12.8,5.7-12.8,12.8c0,7.1,5.8,12.8,12.8,12.8
		c7.1,0,12.8-5.7,12.8-12.8C-130.9,39-136.6,33.3-143.7,33.3L-143.7,33.3z M-143.7,33.3"/>
	<g>
		<path d="M-139.5,51.1c-0.1,0-0.2,0-0.3-0.1l-4.6-4.6c-0.2-0.2-0.2-0.5,0-0.7l4.6-4.6c0.2-0.2,0.5-0.2,0.7,0c0.2,0.2,0.2,0.5,0,0.7
			l-4.2,4.2l4.2,4.2c0.2,0.2,0.2,0.5,0,0.7C-139.3,51.1-139.4,51.1-139.5,51.1L-139.5,51.1z M-139.5,51.1"/>
		<path d="M-148.3,50.9v-9.5c0-0.2,0.2-0.4,0.5-0.4c0.3,0,0.5,0.2,0.5,0.4v9.5c0,0.2-0.2,0.4-0.5,0.4
			C-148.1,51.3-148.3,51.1-148.3,50.9L-148.3,50.9z M-148.3,50.9"/>
	</g>
</g>
<rect fill="none" width="30" height="30"/>
<g>
	<g>
		<path fill="#9FA0A0" d="M-80.3,55.5c2.3,0,4.2-1.9,4.2-4.2c0-2.3-1.9-4.2-4.2-4.2c-2.3,0-4.2,1.9-4.2,4.2
			C-84.5,53.6-82.7,55.5-80.3,55.5L-80.3,55.5z M-80.3,55.5"/>
		<path fill="#9FA0A0" d="M-83.9,56.3c-1.6,0-2.9,1.3-2.9,2.9v3.3c0,0.3,0.3,0.6,0.6,0.6h11.9c0.3,0,0.6-0.3,0.6-0.6v-3.2
			c0-0.1,0.1-0.2,0.1-0.3l2.3-6.1c0.1-0.2,0.1-0.4,0.1-0.6v-6.8c0-1-0.8-1.8-1.8-1.8c-1,0-1.8,0.8-1.8,1.8V52l-1.6,4.3H-83.9z
			 M-83.9,56.3"/>
	</g>
	<g>
		<path fill="#F8B500" d="M-97.4,42.7h2.3c0.5,0,0.9-0.4,1-0.8c0.1-0.9,0.4-1.5,0.8-1.9c0.4-0.4,0.9-0.5,1.6-0.5
			c0.7,0,1.3,0.2,1.7,0.6c0.4,0.4,0.6,0.9,0.6,1.6c0,0.3-0.1,0.6-0.2,0.9c-0.1,0.1-0.4,0.6-1.5,1.5c-1,0.9-1.7,1.7-2.2,2.5
			c-0.4,0.8-0.6,2.1-0.6,3.7c0,0.5,0.4,1,1,1h2.1c0.5,0,1-0.4,1-1c0-1.3,0.2-1.8,0.2-2c0.1-0.2,0.4-0.6,1.6-1.6
			c1.1-0.9,1.8-1.7,2.3-2.5c0.4-0.8,0.7-1.7,0.7-2.7c0-1.7-0.6-3.1-1.9-4.2c-1.2-1.1-2.8-1.6-4.8-1.6c-1.8,0-3.4,0.5-4.6,1.6
			c-1.2,1.1-1.9,2.6-2.1,4.4C-98.5,42.2-98,42.7-97.4,42.7L-97.4,42.7z M-97.4,42.7"/>
		<path fill="#F8B500" d="M-90.8,56.8c0.5,0,1-0.4,1-1v-2.1c0-0.5-0.4-1-1-1h-2.1c-0.5,0-1,0.4-1,1v2.1c0,0.5,0.4,1,1,1H-90.8z
			 M-90.8,56.8"/>
	</g>
</g>
<g>
	<line fill="#F8B500" x1="-116.6" y1="73.3" x2="-108.4" y2="65.2"/>
	<line fill="#F8B500" x1="-116.6" y1="65.2" x2="-108.4" y2="73.3"/>
	<g>
		<path fill="#F8B500" d="M-116.6,73.8c-0.1,0-0.2,0-0.3-0.1c-0.2-0.2-0.2-0.5,0-0.7l8.2-8.2c0.2-0.2,0.5-0.2,0.7,0
			c0.2,0.2,0.2,0.5,0,0.7l-8.2,8.2C-116.3,73.8-116.5,73.8-116.6,73.8L-116.6,73.8z M-116.6,73.8"/>
		<path fill="#F8B500" d="M-108.4,73.8c-0.1,0-0.2,0-0.3-0.1l-8.2-8.2c-0.2-0.2-0.2-0.5,0-0.7c0.2-0.2,0.5-0.2,0.7,0l8.2,8.2
			c0.2,0.2,0.2,0.5,0,0.7C-108.2,73.8-108.3,73.8-108.4,73.8L-108.4,73.8z M-108.4,73.8"/>
	</g>
	<path fill="#F8B500" d="M-112.5,83c-7.6,0-13.7-6.2-13.7-13.7c0-7.6,6.2-13.8,13.7-13.8c7.6,0,13.8,6.2,13.8,13.8
		C-98.7,76.8-104.9,83-112.5,83L-112.5,83z M-112.5,56.4c-7.1,0-12.8,5.8-12.8,12.8c0,7.1,5.8,12.8,12.8,12.8
		c7.1,0,12.8-5.8,12.8-12.8C-99.7,62.2-105.4,56.4-112.5,56.4L-112.5,56.4z M-112.5,56.4"/>
</g>
<g>
	<path fill="#9FA0A0" d="M77.7,30c-8.3,0-15-6.7-15-15c0-8.3,6.7-15,15-15c8.3,0,15,6.7,15,15C92.7,23.3,86,30,77.7,30L77.7,30z
		 M77.7,1c-7.7,0-14,6.3-14,14c0,7.7,6.3,14,14,14c7.7,0,14-6.3,14-14C91.7,7.3,85.4,1,77.7,1L77.7,1z M77.7,1"/>
	<g>
		<path d="M83.2,12.8c0,0.1,0,0.3-0.1,0.4l-5,5c-0.2,0.2-0.5,0.2-0.7,0l-5-5c-0.2-0.2-0.2-0.5,0-0.7c0.2-0.2,0.5-0.2,0.7,0l4.6,4.6
			l4.6-4.6c0.2-0.2,0.5-0.2,0.7,0C83.2,12.6,83.2,12.7,83.2,12.8L83.2,12.8z M83.2,12.8"/>
		<path d="M82.9,22.4H72.5c-0.2,0-0.4-0.2-0.4-0.5c0-0.3,0.2-0.5,0.4-0.5h10.4c0.2,0,0.4,0.2,0.4,0.5C83.4,22.2,83.2,22.4,82.9,22.4
			L82.9,22.4z M82.9,22.4"/>
		<path d="M77.2,16.9V6.4c0-0.2,0.2-0.4,0.5-0.4c0.3,0,0.5,0.2,0.5,0.4v10.4c0,0.2-0.2,0.4-0.5,0.4C77.5,17.3,77.2,17.1,77.2,16.9
			L77.2,16.9z M77.2,16.9"/>
	</g>
</g>
</svg>
