<?xml version="1.0" encoding="utf-8"?>
<!-- Generator: Adobe Illustrator 18.1.1, SVG Export Plug-In . SVG Version: 6.00 Build 0)  -->
<svg version="1.1" id="레이어_1" xmlns="http://www.w3.org/2000/svg" xmlns:xlink="http://www.w3.org/1999/xlink" x="0px"
	 y="0px" viewBox="0 0 30 30" enable-background="new 0 0 30 30" xml:space="preserve">
<g>
	<path fill="#F8B500" d="M-96.7,12.5v1.7h-20.6v-1.7c-1.9,0-3.4,1.5-3.4,3.4v10.3c0,1,0.8,1.7,1.7,1.7H-95c1,0,1.7-0.8,1.7-1.7V15.9
		C-93.3,14-94.8,12.5-96.7,12.5L-96.7,12.5z M-98.4,24.5c0,1-0.8,1.7-1.7,1.7h-13.8c-0.9,0-1.7-0.8-1.7-1.7v-1.7h17.2V24.5z
		 M-95.8,19.4h-1.7c-0.5,0-0.9-0.4-0.9-0.9s0.4-0.9,0.9-0.9h1.7c0.5,0,0.9,0.4,0.9,0.9S-95.4,19.4-95.8,19.4L-95.8,19.4z
		 M-95.8,19.4"/>
	<g>
		<path fill="#9FA0A0" d="M-98.4,0.8h-17.2v12h17.2V0.8z M-99.4,11.8h-15.2v-10h15.2V11.8z M-100.1,11.1"/>
		<rect x="-112.5" y="3.7" fill="#9FA0A0" width="10.9" height="1"/>
		<rect x="-112.5" y="8.9" fill="#9FA0A0" width="10.9" height="1"/>
		<rect x="-112.5" y="6.3" fill="#9FA0A0" width="10.9" height="1"/>
	</g>
</g>
<g>
	<path fill="#9FA0A0" d="M-35.5,0c8.3,0,15,6.7,15,15c0,8.3-6.7,15-15,15c-8.3,0-15-6.7-15-15C-50.5,6.7-43.8,0-35.5,0L-35.5,0z
		 M-35.5,29c7.7,0,14-6.3,14-14c0-7.7-6.3-14-14-14c-7.7,0-14,6.3-14,14C-49.5,22.7-43.2,29-35.5,29L-35.5,29z M-35.5,29"/>
	<path d="M-37.3,9.7c0.1,0,0.3,0,0.4,0.1l5,5c0.2,0.2,0.2,0.5,0,0.7l-5,5c-0.2,0.2-0.5,0.2-0.7,0c-0.2-0.2-0.2-0.5,0-0.7l4.6-4.6
		l-4.6-4.6c-0.2-0.2-0.2-0.5,0-0.7C-37.5,9.8-37.4,9.7-37.3,9.7L-37.3,9.7z M-37.3,9.7"/>
</g>
<g>
	<path fill="#9FA0A0" d="M-35.5,38.4c8.3,0,15,6.7,15,15c0,8.3-6.7,15-15,15c-8.3,0-15-6.7-15-15C-50.5,45.1-43.8,38.4-35.5,38.4
		L-35.5,38.4z M-35.5,67.4c7.7,0,14-6.3,14-14c0-7.7-6.3-14-14-14c-7.7,0-14,6.3-14,14C-49.5,61.1-43.2,67.4-35.5,67.4L-35.5,67.4z
		 M-35.5,67.4"/>
	<g>
		<path d="M-40.1,47.9c0.1,0,0.3,0,0.4,0.1l5,5c0.2,0.2,0.2,0.5,0,0.7l-5,5c-0.2,0.2-0.5,0.2-0.7,0c-0.2-0.2-0.2-0.5,0-0.7l4.6-4.6
			l-4.6-4.6c-0.2-0.2-0.2-0.5,0-0.7C-40.4,48-40.2,47.9-40.1,47.9L-40.1,47.9z M-40.1,47.9"/>
		<path d="M-30.5,48.2v10.4c0,0.2-0.2,0.4-0.5,0.4c-0.3,0-0.5-0.2-0.5-0.4V48.2c0-0.2,0.2-0.4,0.5-0.4C-30.7,47.8-30.5,48-30.5,48.2
			L-30.5,48.2z M-30.5,48.2"/>
	</g>
</g>
<g>
	<path fill="#9FA0A0" d="M-148.3,30c-8.3,0-15-6.7-15-15c0-8.3,6.7-15,15-15c8.3,0,15,6.7,15,15C-133.3,23.3-140.1,30-148.3,30
		L-148.3,30z M-148.3,1c-7.7,0-14,6.3-14,14c0,7.7,6.3,14,14,14c7.7,0,14-6.3,14-14C-134.4,7.3-140.6,1-148.3,1L-148.3,1z M-148.3,1
		"/>
	<path d="M-146.6,20.3c-0.1,0-0.3,0-0.4-0.1l-5-5c-0.2-0.2-0.2-0.5,0-0.7l5-5c0.2-0.2,0.5-0.2,0.7,0c0.2,0.2,0.2,0.5,0,0.7l-4.6,4.6
		l4.6,4.6c0.2,0.2,0.2,0.5,0,0.7C-146.3,20.2-146.5,20.3-146.6,20.3L-146.6,20.3z M-146.6,20.3"/>
</g>
<g>
	<path fill="#9FA0A0" d="M-153.1,71.8c-8.3,0-15-6.7-15-15c0-8.3,6.7-15,15-15c8.3,0,15,6.7,15,15
		C-138.1,65.1-144.8,71.8-153.1,71.8L-153.1,71.8z M-153.1,42.8c-7.7,0-14,6.3-14,14c0,7.7,6.3,14,14,14c7.7,0,14-6.3,14-14
		C-139.1,49.1-145.4,42.8-153.1,42.8L-153.1,42.8z M-153.1,42.8"/>
	<g>
		<path d="M-148.5,62.3c-0.1,0-0.3,0-0.4-0.1l-5-5c-0.2-0.2-0.2-0.5,0-0.7l5-5c0.2-0.2,0.5-0.2,0.7,0c0.2,0.2,0.2,0.5,0,0.7
			l-4.6,4.6l4.6,4.6c0.2,0.2,0.2,0.5,0,0.7C-148.2,62.3-148.4,62.3-148.5,62.3L-148.5,62.3z M-148.5,62.3"/>
		<path d="M-158.1,62V51.6c0-0.2,0.2-0.4,0.5-0.4c0.3,0,0.5,0.2,0.5,0.4V62c0,0.2-0.2,0.4-0.5,0.4C-157.9,62.5-158.1,62.3-158.1,62
			L-158.1,62z M-158.1,62"/>
	</g>
</g>
<g>
	<g>
		<path fill="#9FA0A0" d="M-10.9-6.2c2,0,3.6-1.6,3.6-3.6c0-2-1.6-3.6-3.6-3.6c-2,0-3.6,1.6-3.6,3.6C-14.5-7.8-12.9-6.2-10.9-6.2
			L-10.9-6.2z M-10.9-6.2"/>
		<path fill="#9FA0A0" d="M-14-5.5c-1.4,0-2.5,1.1-2.5,2.5v2.8c0,0.3,0.2,0.5,0.5,0.5h10.1c0.3,0,0.5-0.2,0.5-0.5V-3
			c0-0.1,0.1-0.2,0.1-0.2l2-5.2c0.1-0.2,0.1-0.4,0.1-0.5v-5.8c0-0.8-0.7-1.5-1.5-1.5c-0.8,0-1.5,0.7-1.5,1.5v5.5l-1.4,3.7H-14z
			 M-14-5.5"/>
	</g>
	<g>
		<path fill="#F39800" d="M-30.3-20.6h3c0.6,0,1.1-0.5,1.2-1.1c0.2-1.1,0.5-1.9,1-2.4c0.5-0.5,1.1-0.7,2-0.7c0.9,0,1.6,0.3,2.1,0.8
			c0.5,0.5,0.8,1.1,0.8,2c0,0.4-0.1,0.8-0.3,1.1c-0.1,0.2-0.5,0.7-1.9,1.9c-1.3,1.1-2.2,2.2-2.7,3.2c-0.5,1.1-0.8,2.6-0.8,4.7
			c0,0.7,0.6,1.3,1.3,1.3h2.7c0.7,0,1.3-0.6,1.3-1.3c0-1.6,0.2-2.3,0.3-2.5c0.1-0.2,0.5-0.8,2-2c1.4-1.1,2.3-2.2,2.9-3.2
			c0.5-1,0.8-2.2,0.8-3.4c0-2.1-0.8-3.9-2.4-5.3c-1.5-1.3-3.6-2-6-2c-2.3,0-4.3,0.7-5.8,2.1c-1.6,1.4-2.4,3.2-2.6,5.5
			C-31.6-21.2-31-20.6-30.3-20.6L-30.3-20.6z M-30.3-20.6"/>
		<path fill="#F39800" d="M-21.8-2.7c0.7,0,1.3-0.6,1.3-1.3v-2.7c0-0.7-0.6-1.3-1.3-1.3h-2.7c-0.7,0-1.3,0.6-1.3,1.3V-4
			c0,0.7,0.6,1.3,1.3,1.3H-21.8z M-21.8-2.7"/>
	</g>
</g>
<g>
	<g>
		<path fill="#9FA0A0" d="M68.6-65.9c2.8,0,5.1-2.3,5.1-5.1c0-2.8-2.3-5.1-5.1-5.1c-2.8,0-5.1,2.3-5.1,5.1
			C63.5-68.2,65.8-65.9,68.6-65.9L68.6-65.9z M68.6-65.9"/>
		<path fill="#9FA0A0" d="M64.2-64.8c-2,0-3.6,1.6-3.6,3.6v4c0,0.4,0.3,0.7,0.7,0.7h14.5c0.4,0,0.7-0.3,0.7-0.7v-3.9
			c0.1-0.1,0.1-0.2,0.2-0.3l2.8-7.4c0.1-0.2,0.1-0.5,0.1-0.8v-8.3c0-1.2-1-2.2-2.2-2.2c-1.2,0-2.2,1-2.2,2.2v7.9l-2,5.3H64.2z
			 M64.2-64.8"/>
	</g>
	<g>
		<path fill="#0068B7" d="M53-80.7h1.8c0.4,0,0.7-0.3,0.8-0.6c0.1-0.7,0.3-1.2,0.6-1.5c0.3-0.3,0.7-0.4,1.2-0.4c0.6,0,1,0.2,1.3,0.5
			c0.3,0.3,0.5,0.7,0.5,1.2c0,0.2-0.1,0.5-0.2,0.7c-0.1,0.1-0.3,0.4-1.1,1.2c-0.8,0.7-1.3,1.3-1.7,2c-0.3,0.6-0.5,1.6-0.5,2.9
			c0,0.4,0.3,0.8,0.8,0.8h1.6c0.4,0,0.8-0.3,0.8-0.8c0-1,0.1-1.4,0.2-1.5c0.1-0.1,0.3-0.5,1.2-1.2c0.8-0.7,1.4-1.3,1.7-2
			c0.3-0.6,0.5-1.3,0.5-2c0-1.3-0.5-2.4-1.5-3.2c-0.9-0.8-2.2-1.2-3.7-1.2c-1.4,0-2.6,0.4-3.5,1.3c-0.9,0.8-1.5,2-1.6,3.4
			C52.2-81.1,52.5-80.7,53-80.7L53-80.7z M53-80.7"/>
		<path fill="#0068B7" d="M58.1-69.8c0.4,0,0.8-0.3,0.8-0.8v-1.6c0-0.4-0.3-0.8-0.8-0.8h-1.6c-0.4,0-0.8,0.3-0.8,0.8v1.6
			c0,0.4,0.3,0.8,0.8,0.8H58.1z M58.1-69.8"/>
	</g>
</g>
<g>
	<line fill="#F8B500" x1="-111.5" y1="85.2" x2="-102.5" y2="76.3"/>
	<line fill="#F8B500" x1="-111.5" y1="76.3" x2="-102.5" y2="85.2"/>
	<g>
		<path d="M-111.5,85.7c-0.1,0-0.3-0.1-0.4-0.1c-0.2-0.2-0.2-0.5,0-0.7l8.9-8.9c0.2-0.2,0.5-0.2,0.7,0c0.2,0.2,0.2,0.5,0,0.7
			l-8.9,8.9C-111.2,85.7-111.3,85.7-111.5,85.7L-111.5,85.7z M-111.5,85.7"/>
		<path d="M-102.5,85.7c-0.1,0-0.3-0.1-0.4-0.1l-8.9-8.9c-0.2-0.2-0.2-0.5,0-0.7c0.2-0.2,0.5-0.2,0.7,0l8.9,8.9
			c0.2,0.2,0.2,0.5,0,0.7C-102.3,85.7-102.4,85.7-102.5,85.7L-102.5,85.7z M-102.5,85.7"/>
	</g>
	<path fill="#9FA0A0" d="M-107,95.8c-8.3,0-15-6.7-15-15s6.7-15,15-15c8.3,0,15,6.7,15,15S-98.7,95.8-107,95.8L-107,95.8z
		 M-107,66.8c-7.7,0-14,6.3-14,14c0,7.7,6.3,14,14,14c7.7,0,14-6.3,14-14C-93,73.1-99.3,66.8-107,66.8L-107,66.8z M-107,66.8"/>
</g>
<g>
	<line fill="#E60012" x1="94.2" y1="61" x2="103.1" y2="52.1"/>
	<line fill="#E60012" x1="94.2" y1="52.1" x2="103.1" y2="61"/>
	<g>
		<path fill="#E60012" d="M94.2,61.5c-0.1,0-0.3-0.1-0.4-0.1c-0.2-0.2-0.2-0.5,0-0.7l8.9-8.9c0.2-0.2,0.5-0.2,0.7,0
			c0.2,0.2,0.2,0.5,0,0.7l-8.9,8.9C94.4,61.5,94.3,61.5,94.2,61.5L94.2,61.5z M94.2,61.5"/>
		<path fill="#E60012" d="M103.1,61.5c-0.1,0-0.3-0.1-0.4-0.1l-8.9-8.9c-0.2-0.2-0.2-0.5,0-0.7c0.2-0.2,0.5-0.2,0.7,0l8.9,8.9
			c0.2,0.2,0.2,0.5,0,0.7C103.3,61.5,103.2,61.5,103.1,61.5L103.1,61.5z M103.1,61.5"/>
	</g>
	<path fill="#E60012" d="M98.6,71.6c-8.3,0-15-6.7-15-15s6.7-15,15-15c8.3,0,15,6.7,15,15S106.9,71.6,98.6,71.6L98.6,71.6z
		 M98.6,42.6c-7.7,0-14,6.3-14,14c0,7.7,6.3,14,14,14c7.7,0,14-6.3,14-14C112.6,48.9,106.3,42.6,98.6,42.6L98.6,42.6z M98.6,42.6"/>
</g>
<g>
	<path fill="#F39800" d="M18.2-20.5c-8.3,0-15-6.7-15-15c0-8.3,6.7-15,15-15c8.3,0,15,6.7,15,15C33.2-27.2,26.4-20.5,18.2-20.5
		L18.2-20.5z M18.2-49.5c-7.7,0-14,6.3-14,14c0,7.7,6.3,14,14,14c7.7,0,14-6.3,14-14C32.2-43.2,25.9-49.5,18.2-49.5L18.2-49.5z
		 M18.2-49.5"/>
	<g>
		<path fill="#F39800" d="M23.7-37.7c0,0.1,0,0.3-0.1,0.4l-5,5c-0.2,0.2-0.5,0.2-0.7,0l-5-5c-0.2-0.2-0.2-0.5,0-0.7
			c0.2-0.2,0.5-0.2,0.7,0l4.6,4.6l4.6-4.6c0.2-0.2,0.5-0.2,0.7,0C23.6-37.9,23.7-37.8,23.7-37.7L23.7-37.7z M23.7-37.7"/>
		<path fill="#F39800" d="M23.4-28H13c-0.2,0-0.4-0.2-0.4-0.5c0-0.3,0.2-0.5,0.4-0.5h10.4c0.2,0,0.4,0.2,0.4,0.5
			C23.8-28.3,23.6-28,23.4-28L23.4-28z M23.4-28"/>
		<path fill="#F39800" d="M17.7-33.6V-44c0-0.2,0.2-0.4,0.5-0.4c0.3,0,0.5,0.2,0.5,0.4v10.4c0,0.2-0.2,0.4-0.5,0.4
			C17.9-33.2,17.7-33.4,17.7-33.6L17.7-33.6z M17.7-33.6"/>
	</g>
</g>
<g>
	<path fill="#9FA0A0" d="M15,82.6c-8.3,0-15-6.7-15-15c0-8.3,6.7-15,15-15c8.3,0,15,6.7,15,15C30,75.9,23.3,82.6,15,82.6L15,82.6z
		 M15,53.6c-7.7,0-14,6.3-14,14c0,7.7,6.3,14,14,14c7.7,0,14-6.3,14-14C29,59.9,22.7,53.6,15,53.6L15,53.6z M15,53.6"/>
	<g>
		<path d="M20.5,65.4c0,0.1,0,0.3-0.1,0.4l-5,5c-0.2,0.2-0.5,0.2-0.7,0l-5-5c-0.2-0.2-0.2-0.5,0-0.7c0.2-0.2,0.5-0.2,0.7,0l4.6,4.6
			l4.6-4.6c0.2-0.2,0.5-0.2,0.7,0C20.4,65.2,20.5,65.3,20.5,65.4L20.5,65.4z M20.5,65.4"/>
		<path d="M20.2,75H9.8c-0.2,0-0.4-0.2-0.4-0.5c0-0.3,0.2-0.5,0.4-0.5h10.4c0.2,0,0.4,0.2,0.4,0.5C20.6,74.8,20.4,75,20.2,75
			L20.2,75z M20.2,75"/>
		<path d="M14.5,69.5V59c0-0.2,0.2-0.4,0.5-0.4c0.3,0,0.5,0.2,0.5,0.4v10.4c0,0.2-0.2,0.4-0.5,0.4C14.7,69.9,14.5,69.7,14.5,69.5
			L14.5,69.5z M14.5,69.5"/>
	</g>
</g>
<g>
	<g>
		<path fill="#B5B5B6" d="M68.9-14.7h-1.7l-1.5-3.9h-5.8l-1.4,3.9h-1.7l5.2-13.6h1.5L68.9-14.7z M65.3-19.9l-2.2-5.9
			c-0.1-0.2-0.1-0.5-0.2-0.9h0c-0.1,0.4-0.1,0.7-0.2,0.9l-2.1,5.9H65.3z"/>
	</g>
	<g>
		<path fill="#9FA0A0" d="M48.2-33.9v29.7h14.1h0.6h0l8.2-8.4v-21.3H48.2z M48.8-4.9v-28.4h21.6v20.1h-8.2v8.3H48.8z M62.9-5.1v-7.4
			h7.2L62.9-5.1z"/>
		<path fill="#9FA0A0" d="M63-4.1H48.1v-30h23.2v21.5L63-4.1z M48.4-4.4h14.5l8.1-8.3v-21H48.4V-4.4z M62.4-4.7H48.7v-28.7h21.9V-13
			h-8.2V-4.7z M49-5h13.1v-8.3h8.2v-19.8H49V-5z M62.7-4.7v-7.9h7.7L62.7-4.7z M63.1-12.4v6.8l6.6-6.8H63.1z"/>
	</g>
	<g>
		<path d="M65.6-16.3H64l-1.5-3.9h-5.8l-1.4,3.9h-1.7l5.2-13.6h1.5L65.6-16.3z M62-21.5l-2.2-5.9c-0.1-0.2-0.1-0.5-0.2-0.9h0
			c-0.1,0.4-0.1,0.7-0.2,0.9l-2.1,5.9H62z"/>
	</g>
</g>
<g>
	<g>
		<path fill="#9FA0A0" d="M-54.8-51.7V-22h14.1h0.6h0l8.2-8.4v-21.3H-54.8z M-54.2-22.6v-28.4h21.6v20.1h-8.2v8.3H-54.2z
			 M-40.1-22.9v-7.4h7.2L-40.1-22.9z"/>
		<path fill="#9FA0A0" d="M-40-21.8H-55v-30h23.2v21.5L-40-21.8z M-54.7-22.2h14.5l8.1-8.3v-21h-22.5V-22.2z M-40.6-22.5h-13.7
			v-28.7h21.9v20.5h-8.2V-22.5z M-54-22.8h13.1v-8.3h8.2v-19.8H-54V-22.8z M-40.3-22.5v-7.9h7.7L-40.3-22.5z M-40-30.1v6.8l6.6-6.8
			H-40z"/>
	</g>
	<g>
		<path d="M-38.1-35.5h-1.4l-1.3-3.4H-46l-1.2,3.4h-1.5l4.6-11.9h1.3L-38.1-35.5z M-41.3-40l-1.9-5.1c-0.1-0.2-0.1-0.4-0.2-0.8h0
			c-0.1,0.4-0.1,0.6-0.2,0.8l-1.9,5.1H-41.3z"/>
	</g>
	<polyline fill="none" stroke="#000000" stroke-width="0.75" stroke-miterlimit="10" points="-48.9,-48.4 -51.3,-48.4 -51.3,-45.8 	
		"/>
	<polyline fill="none" stroke="#000000" stroke-width="0.75" stroke-miterlimit="10" points="-37.8,-48.4 -35.4,-48.4 -35.4,-45.8 	
		"/>
	<polyline fill="none" stroke="#000000" stroke-width="0.75" stroke-miterlimit="10" points="-48.9,-32.8 -51.3,-32.8 -51.3,-35.4 	
		"/>
	<polyline fill="none" stroke="#000000" stroke-width="0.75" stroke-miterlimit="10" points="-37.8,-32.8 -35.4,-32.8 -35.4,-35.4 	
		"/>
</g>
<g>
	<g>
		<g>
			<path fill="#00A0E9" d="M141.8,57.4v-1.7h1.4v1.7H141.8z"/>
			<path fill="#00A0E9" d="M146.1,48.4v3.3c0.2-0.3,0.5-0.6,0.7-0.7s0.6-0.2,0.9-0.2c0.4,0,0.8,0.1,1.1,0.3c0.3,0.2,0.5,0.5,0.6,1
				c0.1,0.3,0.1,0.8,0.1,1.6v3.8h-1.4V54c0-0.8-0.1-1.3-0.2-1.5c-0.1-0.3-0.4-0.4-0.7-0.4c-0.4,0-0.6,0.1-0.8,0.4
				c-0.2,0.3-0.3,0.8-0.3,1.6v3.3h-1.4v-9H146.1z"/>
			<path fill="#00A0E9" d="M152,57.4l-1.7-6.5h1.4l1,4.3l0.9-4.3h1.4l0.9,4.3l1-4.3h1.4l-1.7,6.5h-1.4l-0.9-4.2l-0.9,4.2H152z"/>
			<path fill="#00A0E9" d="M159,50.9h1.3v1c0.2-0.3,0.4-0.6,0.7-0.8c0.3-0.2,0.6-0.3,1-0.3c0.6,0,1.1,0.3,1.6,0.9
				c0.4,0.6,0.7,1.4,0.7,2.5c0,1.1-0.2,2-0.7,2.6c-0.4,0.6-1,0.9-1.6,0.9c-0.3,0-0.5-0.1-0.8-0.2c-0.2-0.1-0.5-0.4-0.8-0.7v3.3H159
				V50.9z M160.4,54.1c0,0.7,0.1,1.3,0.4,1.6c0.2,0.3,0.5,0.5,0.9,0.5c0.3,0,0.6-0.2,0.8-0.5c0.2-0.3,0.3-0.8,0.3-1.6
				c0-0.7-0.1-1.2-0.3-1.5s-0.5-0.5-0.8-0.5c-0.3,0-0.6,0.2-0.9,0.5C160.5,52.9,160.4,53.4,160.4,54.1z"/>
		</g>
	</g>
	<path fill="#9FA0A0" d="M158.9,67.6h-3v-0.9h3L158.9,67.6z M152.9,67.6h-3v-0.9h3V67.6z M146.9,67.6h-0.2c-1,0-2-0.2-2.9-0.5
		l0.3-0.8c0.8,0.3,1.7,0.4,2.6,0.4h0.2V67.6z M162,67l-0.3-0.8c0.9-0.3,1.7-0.8,2.4-1.4l0.6,0.7C163.9,66.1,163,66.7,162,67z
		 M141.1,65.6c-0.8-0.7-1.5-1.5-2-2.4l0.8-0.5c0.5,0.8,1.1,1.5,1.8,2.1L141.1,65.6z M166.7,63l-0.8-0.4c0.5-0.8,0.8-1.7,0.9-2.7
		l0.9,0.1C167.5,61.1,167.2,62.1,166.7,63z M137.9,60.3c-0.1-0.5-0.1-1-0.1-1.6v-1.5h0.9v1.5c0,0.5,0,1,0.1,1.4L137.9,60.3z
		 M167.8,57h-0.9v-3h0.9V57z M138.7,54.2h-0.9v-3h0.9V54.2z M167.8,51h-0.9v-3h0.9V51z M138.7,48.2h-0.9v-1.7c0-0.4,0-0.9,0.1-1.3
		l0.9,0.1c-0.1,0.4-0.1,0.8-0.1,1.2V48.2z M166.8,45.1c-0.2-0.9-0.5-1.8-1-2.6l0.8-0.5c0.5,0.9,0.9,1.9,1.1,2.9L166.8,45.1z
		 M139.7,42.6l-0.8-0.4c0.5-0.9,1.2-1.7,2-2.4l0.6,0.7C140.7,41.1,140.1,41.8,139.7,42.6z M163.9,40.3c-0.7-0.6-1.6-1.1-2.5-1.4
		l0.3-0.8c1,0.3,1.9,0.9,2.7,1.5L163.9,40.3z M143.9,39l-0.3-0.8c1-0.4,2-0.6,3.1-0.6l0,0.9C145.7,38.5,144.8,38.7,143.9,39z
		 M158.7,38.5h-3v-0.9h3V38.5z M152.7,38.5h-3v-0.9h3V38.5z"/>
</g>
<g>
	<g>
		<g>
			<path fill="#8FC31F" d="M144.7,99.8V98h1.5v1.8H144.7z"/>
			<path fill="#8FC31F" d="M146.9,99.8l2-3.4l-1.9-3.3h1.8l1,1.7l1-1.7h1.7l-1.9,3.2l2,3.5h-1.8l-1.1-2l-1.1,2H146.9z"/>
			<path fill="#8FC31F" d="M153.6,99.8v-9.3h1.5v9.3H153.6z"/>
			<path fill="#8FC31F" d="M156,97.9l1.5-0.3c0.1,0.7,0.5,1.1,1.2,1.1c0.4,0,0.6-0.1,0.8-0.2c0.2-0.1,0.3-0.3,0.3-0.5
				c0-0.1,0-0.3-0.1-0.3c-0.1-0.1-0.2-0.2-0.5-0.2c-1.2-0.3-2-0.6-2.3-0.9c-0.4-0.4-0.6-0.9-0.6-1.5c0-0.6,0.2-1.1,0.6-1.5
				c0.4-0.4,1-0.6,1.7-0.6c0.7,0,1.3,0.1,1.7,0.4c0.4,0.3,0.6,0.7,0.8,1.4l-1.4,0.3c-0.1-0.5-0.5-0.8-1-0.8c-0.4,0-0.6,0.1-0.8,0.2
				c-0.2,0.1-0.2,0.2-0.2,0.4c0,0.1,0.1,0.3,0.2,0.4c0.1,0.1,0.6,0.3,1.3,0.5c0.8,0.2,1.4,0.5,1.7,0.8c0.3,0.3,0.4,0.8,0.4,1.3
				c0,0.7-0.2,1.2-0.7,1.6c-0.4,0.4-1.1,0.6-1.9,0.6c-0.7,0-1.3-0.2-1.8-0.5C156.4,99.1,156.2,98.6,156,97.9z"/>
		</g>
	</g>
	<path fill="#9FA0A0" d="M158.9,109.9h-3V109h3L158.9,109.9z M152.9,109.9h-3V109h3V109.9z M146.9,109.9h-0.2c-1,0-2-0.2-2.9-0.5
		l0.3-0.8c0.8,0.3,1.7,0.4,2.6,0.4h0.2V109.9z M162,109.3l-0.3-0.8c0.9-0.3,1.7-0.8,2.4-1.4l0.6,0.7C163.9,108.4,163,109,162,109.3z
		 M141.1,107.9c-0.8-0.7-1.5-1.5-2-2.4l0.8-0.5c0.5,0.8,1.1,1.5,1.8,2.1L141.1,107.9z M166.7,105.3l-0.8-0.4
		c0.5-0.8,0.8-1.7,0.9-2.7l0.9,0.1C167.5,103.4,167.2,104.4,166.7,105.3z M137.9,102.6c-0.1-0.5-0.1-1-0.1-1.6v-1.5h0.9v1.5
		c0,0.5,0,1,0.1,1.4L137.9,102.6z M167.8,99.3h-0.9v-3h0.9V99.3z M138.7,96.5h-0.9v-3h0.9V96.5z M167.8,93.3h-0.9v-3h0.9V93.3z
		 M138.7,90.5h-0.9v-1.7c0-0.4,0-0.9,0.1-1.3l0.9,0.1c-0.1,0.4-0.1,0.8-0.1,1.2V90.5z M166.8,87.4c-0.2-0.9-0.5-1.8-1-2.6l0.8-0.5
		c0.5,0.9,0.9,1.9,1.1,2.9L166.8,87.4z M139.7,84.9l-0.8-0.4c0.5-0.9,1.2-1.7,2-2.4l0.6,0.7C140.7,83.4,140.1,84.1,139.7,84.9z
		 M163.9,82.6c-0.7-0.6-1.6-1.1-2.5-1.4l0.3-0.8c1,0.3,1.9,0.9,2.7,1.5L163.9,82.6z M143.9,81.3l-0.3-0.8c1-0.4,2-0.6,3.1-0.6l0,0.9
		C145.7,80.8,144.8,81,143.9,81.3z M158.7,80.8h-3v-0.9h3V80.8z M152.7,80.8h-3v-0.9h3V80.8z"/>
</g>
<g>
	<g>
		<path fill="#E60012" d="M43.1,117.9v-1.8h1.5v1.8H43.1z"/>
		<path fill="#E60012" d="M46,111.2h1.4v1c0.2-0.4,0.4-0.6,0.7-0.8c0.3-0.2,0.6-0.3,1-0.3c0.6,0,1.2,0.3,1.6,0.9
			c0.5,0.6,0.7,1.5,0.7,2.6c0,1.2-0.2,2.1-0.7,2.7s-1,0.9-1.6,0.9c-0.3,0-0.6-0.1-0.8-0.2c-0.3-0.1-0.5-0.4-0.8-0.8v3.4H46V111.2z
			 M47.5,114.4c0,0.8,0.1,1.3,0.4,1.7c0.2,0.4,0.5,0.5,0.9,0.5c0.3,0,0.6-0.2,0.8-0.5c0.2-0.3,0.3-0.9,0.3-1.6
			c0-0.7-0.1-1.2-0.4-1.6s-0.5-0.5-0.9-0.5c-0.4,0-0.7,0.2-0.9,0.5C47.6,113.3,47.5,113.8,47.5,114.4z"/>
		<path fill="#E60012" d="M57.7,117.9h-1.4v-1c-0.2,0.4-0.5,0.7-0.8,0.9s-0.6,0.3-0.9,0.3c-0.6,0-1.2-0.3-1.6-0.9s-0.7-1.5-0.7-2.6
			c0-1.2,0.2-2,0.7-2.6c0.4-0.6,1-0.9,1.7-0.9c0.3,0,0.6,0.1,0.9,0.2s0.5,0.4,0.7,0.7v-3.3h1.5V117.9z M53.8,114.4
			c0,0.6,0.1,1.1,0.2,1.4s0.3,0.5,0.4,0.7s0.4,0.2,0.6,0.2c0.3,0,0.6-0.2,0.8-0.5s0.4-0.9,0.4-1.6c0-0.8-0.1-1.3-0.3-1.7
			c-0.2-0.3-0.5-0.5-0.9-0.5c-0.3,0-0.6,0.2-0.9,0.5C53.9,113.2,53.8,113.7,53.8,114.4z"/>
		<path fill="#E60012" d="M58.5,111.2h0.8v-0.5c0-0.6,0.1-1.1,0.2-1.3c0.1-0.3,0.3-0.5,0.6-0.6s0.6-0.2,1-0.2c0.4,0,0.8,0.1,1.2,0.2
			l-0.2,1.2c-0.2-0.1-0.5-0.1-0.7-0.1c-0.2,0-0.4,0.1-0.5,0.2c-0.1,0.1-0.1,0.4-0.1,0.7v0.5h1.1v1.4h-1.1v5.3h-1.5v-5.3h-0.8V111.2z
			"/>
	</g>
</g>
<path fill="#9FA0A0" d="M28.8,153.4h-3v-0.9h3L28.8,153.4z M22.8,153.4h-3v-0.9h3V153.4z M16.8,153.4h-0.2c-1,0-2-0.2-2.9-0.5
	l0.3-0.8c0.8,0.3,1.7,0.4,2.6,0.4h0.2V153.4z M31.9,152.8l-0.3-0.8c0.9-0.3,1.7-0.8,2.4-1.4l0.6,0.7
	C33.8,151.9,32.9,152.4,31.9,152.8z M11,151.4c-0.8-0.7-1.5-1.5-2-2.4l0.8-0.5c0.5,0.8,1.1,1.5,1.8,2.1L11,151.4z M36.6,148.8
	l-0.8-0.4c0.5-0.8,0.8-1.7,0.9-2.7l0.9,0.1C37.4,146.9,37.1,147.9,36.6,148.8z M7.8,146.1c-0.1-0.5-0.1-1-0.1-1.6V143h0.9v1.5
	c0,0.5,0,1,0.1,1.4L7.8,146.1z M37.7,142.7h-0.9v-3h0.9V142.7z M8.6,140H7.7v-3h0.9V140z M37.7,136.8h-0.9v-3h0.9V136.8z M8.6,134
	H7.7v-1.7c0-0.4,0-0.9,0.1-1.3l0.9,0.1c-0.1,0.4-0.1,0.8-0.1,1.2V134z M36.6,130.9c-0.2-0.9-0.5-1.8-1-2.6l0.8-0.5
	c0.5,0.9,0.9,1.9,1.1,2.9L36.6,130.9z M9.6,128.4L8.8,128c0.5-0.9,1.2-1.7,2-2.4l0.6,0.7C10.6,126.9,10,127.6,9.6,128.4z
	 M33.8,126.1c-0.7-0.6-1.6-1.1-2.5-1.4l0.3-0.8c1,0.3,1.9,0.9,2.7,1.5L33.8,126.1z M13.8,124.8l-0.3-0.8c1-0.4,2-0.6,3.1-0.6l0,0.9
	C15.6,124.3,14.7,124.5,13.8,124.8z M28.5,124.3h-3v-0.9h3V124.3z M22.5,124.3h-3v-0.9h3V124.3z"/>
<g>
	<g>
		<path fill="#F39800" d="M190.7-1.1c0,0.1,0,0.3-0.1,0.4l-5,5c-0.2,0.2-0.5,0.2-0.7,0l-5-5c-0.2-0.2-0.2-0.5,0-0.7
			c0.2-0.2,0.5-0.2,0.7,0l4.6,4.6l4.6-4.6c0.2-0.2,0.5-0.2,0.7,0C190.7-1.3,190.7-1.2,190.7-1.1L190.7-1.1z M190.7-1.1"/>
		<path fill="#F39800" d="M190.5,8.6h-10.4c-0.2,0-0.4-0.2-0.4-0.5c0-0.3,0.2-0.5,0.4-0.5h10.4c0.2,0,0.4,0.2,0.4,0.5
			C190.9,8.3,190.7,8.6,190.5,8.6L190.5,8.6z M190.5,8.6"/>
		<path fill="#F39800" d="M184.8,3V-7.4c0-0.2,0.2-0.4,0.5-0.4c0.3,0,0.5,0.2,0.5,0.4V3c0,0.2-0.2,0.4-0.5,0.4
			C185,3.4,184.8,3.2,184.8,3L184.8,3z M184.8,3"/>
	</g>
	<path fill="#F39800" d="M191.4,15.4h-3v-0.9h3L191.4,15.4z M185.4,15.4h-3v-0.9h3V15.4z M179.4,15.4h-0.2c-1,0-2-0.2-2.9-0.5
		l0.3-0.8c0.8,0.3,1.7,0.4,2.6,0.4h0.2V15.4z M194.5,14.8l-0.3-0.8c0.9-0.3,1.7-0.8,2.4-1.4l0.6,0.7
		C196.4,13.9,195.5,14.4,194.5,14.8z M173.5,13.4c-0.8-0.7-1.5-1.5-2-2.4l0.8-0.5c0.5,0.8,1.1,1.5,1.8,2.1L173.5,13.4z M199.2,10.8
		l-0.8-0.4c0.5-0.8,0.8-1.7,0.9-2.7l0.9,0.1C200,8.8,199.7,9.8,199.2,10.8z M170.4,8c-0.1-0.5-0.1-1-0.1-1.6V5h0.9v1.5
		c0,0.5,0,1,0.1,1.4L170.4,8z M200.3,4.7h-0.9v-3h0.9V4.7z M171.2,2h-0.9v-3h0.9V2z M200.3-1.3h-0.9v-3h0.9V-1.3z M171.2-4h-0.9
		v-1.7c0-0.4,0-0.9,0.1-1.3l0.9,0.1c-0.1,0.4-0.1,0.8-0.1,1.2V-4z M199.2-7.2c-0.2-0.9-0.5-1.8-1-2.6l0.8-0.5
		c0.5,0.9,0.9,1.9,1.1,2.9L199.2-7.2z M172.2-9.6l-0.8-0.4c0.5-0.9,1.2-1.7,2-2.4l0.6,0.7C173.2-11.2,172.6-10.4,172.2-9.6z
		 M196.4-11.9c-0.7-0.6-1.6-1.1-2.5-1.4l0.3-0.8c1,0.3,1.9,0.9,2.7,1.5L196.4-11.9z M176.4-13.2l-0.3-0.8c1-0.4,2-0.6,3.1-0.6l0,0.9
		C178.2-13.7,177.3-13.6,176.4-13.2z M191.1-13.7h-3v-0.9h3V-13.7z M185.1-13.7h-3v-0.9h3V-13.7z"/>
</g>
<g>
	<g>
		<text transform="matrix(1 0 0 1 216.8632 141.8253)" fill="#E60012" font-family="'ArialNarrow-Bold'" font-size="13">.pdf</text>
	</g>
	<path fill="#9FA0A0" d="M232.9,151.9h-3V151h3L232.9,151.9z M226.9,151.9h-3V151h3V151.9z M220.9,151.9h-0.2c-1,0-2-0.2-2.9-0.5
		l0.3-0.8c0.8,0.3,1.7,0.4,2.6,0.4h0.2V151.9z M236,151.3l-0.3-0.8c0.9-0.3,1.7-0.8,2.4-1.4l0.6,0.7C237.9,150.4,237,151,236,151.3z
		 M215.1,149.9c-0.8-0.7-1.5-1.5-2-2.4l0.8-0.5c0.5,0.8,1.1,1.5,1.8,2.1L215.1,149.9z M240.7,147.3l-0.8-0.4
		c0.5-0.8,0.8-1.7,0.9-2.7l0.9,0.1C241.5,145.4,241.2,146.4,240.7,147.3z M211.9,144.6c-0.1-0.5-0.1-1-0.1-1.6v-1.5h0.9v1.5
		c0,0.5,0,1,0.1,1.4L211.9,144.6z M241.8,141.3h-0.9v-3h0.9V141.3z M212.7,138.5h-0.9v-3h0.9V138.5z M241.8,135.3h-0.9v-3h0.9V135.3
		z M212.7,132.5h-0.9v-1.7c0-0.4,0-0.9,0.1-1.3l0.9,0.1c-0.1,0.4-0.1,0.8-0.1,1.2V132.5z M240.8,129.4c-0.2-0.9-0.5-1.8-1-2.6
		l0.8-0.5c0.5,0.9,0.9,1.9,1.1,2.9L240.8,129.4z M213.7,126.9l-0.8-0.4c0.5-0.9,1.2-1.7,2-2.4l0.6,0.7
		C214.7,125.4,214.1,126.1,213.7,126.9z M237.9,124.6c-0.7-0.6-1.6-1.1-2.5-1.4l0.3-0.8c1,0.3,1.9,0.9,2.7,1.5L237.9,124.6z
		 M217.9,123.3l-0.3-0.8c1-0.4,2-0.6,3.1-0.6l0,0.9C219.7,122.8,218.8,123,217.9,123.3z M232.7,122.8h-3v-0.9h3V122.8z M226.7,122.8
		h-3v-0.9h3V122.8z"/>
</g>
<g>
	<path fill="#B5B5B6" d="M91.4,16H90l-1.2-3.1h-4.7L83,16h-1.3l4.2-11h1.2L91.4,16z M88.4,11.8L86.7,7c-0.1-0.2-0.1-0.4-0.2-0.7h0
		c-0.1,0.3-0.1,0.6-0.2,0.7l-1.7,4.7H88.4z"/>
</g>
<g>
	<path fill="#9FA0A0" d="M74.6,0.5v23.8H86h0.5h0l6.6-6.8v-17H74.6z M75.1,23.7V1h17.5v16.1H86v6.6H75.1z M86.5,23.5v-5.9h5.8
		L86.5,23.5z"/>
	<path fill="#9FA0A0" d="M86.6,24.4H74.5v-24h18.7v17.2L86.6,24.4z M74.8,24.1h11.7l6.5-6.7V0.6H74.8V24.1z M86.1,23.9H75v-23h17.7
		v16.4h-6.6V23.9z M75.3,23.6h10.6V17h6.6V1.1H75.3V23.6z M86.4,23.9v-6.4h6.2L86.4,23.9z M86.6,17.7v5.5l5.4-5.5H86.6z"/>
</g>
<g>
	<path fill="#F39800" d="M88.7,14.7h-1.3l-1.2-3.1h-4.7l-1.1,3.1H79l4.2-11h1.2L88.7,14.7z M85.8,10.5L84,5.8
		C84,5.6,83.9,5.3,83.9,5h0c-0.1,0.3-0.1,0.6-0.2,0.7l-1.7,4.7H85.8z"/>
</g>
<g>
	<rect x="258.7" y="2.5" width="6.8" height="11.1"/>
	<polygon points="254.9,11.6 269.3,11.6 262,19.9 	"/>
</g>
<path fill="#9FA0A0" d="M273.3,18.9v1.9h-22.5v-1.9c-2.1,0-3.7,0.6-3.7,2.7v9.1c0,1,0.8,1.9,1.9,1.9h26.2c1,0,1.9-0.8,1.9-1.9v-9.1
	C277.1,19.5,275.4,18.9,273.3,18.9z"/>
<circle fill="#FFFFFF" cx="263.5" cy="27.2" r="1.4"/>
<circle fill="#FFFFFF" cx="267.7" cy="27.2" r="1.4"/>
<circle fill="#FFFFFF" cx="271.8" cy="27.2" r="1.4"/>
<circle fill="#9FA0A0" cx="52.7" cy="17.5" r="15"/>
<g>
	
		<circle fill="none" stroke="#FFFFFF" stroke-width="0.5" stroke-miterlimit="10" stroke-dasharray="1.9817,1.9817" cx="52.7" cy="17.5" r="13.2"/>
</g>
<rect x="73.1" y="123.2" fill="#FFFFFF" width="10.5" height="10.5"/>
<path d="M78.2,132.9c0,0-5.8-2-0.6-7.3l-1.4-1h5.1v5l-1.9-1.5C79.5,128.2,76,130.3,78.2,132.9z"/>
<path d="M20.3,147.6c0,0-9.9-3.4-1-12.3l-2.3-1.6h8.7v8.6l-3.2-2.6C22.5,139.7,16.5,143.2,20.3,147.6z"/>
<rect fill="none" width="30" height="30"/>
<g>
	<path fill="#9FA0A0" d="M157.6-57.2h-2.4v9.6h-16.6v-9.6h-2.4c-2.4,0-4.4,1.9-4.4,4.4v21.2c0,2.4,2,4.4,4.4,4.4h21.3
		c2.4,0,4.4-1.9,4.4-4.4v-21.2C161.9-55.3,160-57.2,157.6-57.2z M157-31.9c0,1.7-1.3,3-3,3h-14c-1.7,0-3-1.3-3-3v-6c0-1.7,1.3-3,3-3
		h14c1.7,0,3,1.3,3,3V-31.9z"/>
	<g>
		<rect x="140.5" y="-55.9" width="3.1" height="6.8"/>
	</g>
	<g>
		<rect x="138.4" y="-35.2" width="17" height="0.8"/>
		<rect x="138.4" y="-32.7" width="17" height="0.8"/>
		<rect x="138.4" y="-37.7" width="17" height="0.8"/>
	</g>
</g>
<path fill="#F8B500" d="M70.6,61.2h-2.3v9.2h-16v-9.2h-2.3c-2.3,0-4.2,1.9-4.2,4.2v20.5c0,2.3,1.9,4.2,4.2,4.2h20.5
	c2.3,0,4.2-1.9,4.2-4.2V65.4C74.8,63.1,72.9,61.2,70.6,61.2z M70,85.7c0,1.6-1.3,2.9-2.9,2.9H53.6c-1.6,0-2.9-1.3-2.9-2.9v-5.8
	c0-1.6,1.3-2.9,2.9-2.9h13.5c1.6,0,2.9,1.3,2.9,2.9V85.7z"/>
<g>
	<rect x="54.2" y="62.5" fill="#B5B5B6" width="3" height="6.6"/>
</g>
<g>
	<rect x="52.1" y="82.5" fill="#B5B5B6" width="16.4" height="0.8"/>
	<rect x="52.1" y="84.8" fill="#B5B5B6" width="16.4" height="0.8"/>
	<rect x="52.1" y="80.1" fill="#B5B5B6" width="16.4" height="0.8"/>
</g>
<g>
	<g>
		<path fill="#9FA0A0" d="M188.6-50.4v23.1h11.5h0.5h0l6.7-6.9v-16.2H188.6z M189.1-27.7v-22.1h17.6v15.3h-6.7v6.8H189.1z M200.6-28
			v-6h5.8L200.6-28z"/>
		<path fill="#9FA0A0" d="M200.6-27.1h-12.2v-23.4h18.9v16.4L200.6-27.1z M188.7-27.4h11.8l6.6-6.8v-16.1h-18.4V-27.4z M200.2-27.6
			H189V-50h17.9v15.6h-6.7V-27.6z M189.2-27.9h10.7v-6.8h6.7v-15.1h-17.4V-27.9z M200.4-27.6v-6.5h6.3L200.4-27.6z M200.7-33.9v5.6
			l5.4-5.6H200.7z"/>
	</g>
	<g>
		<path fill="#B5B5B6" d="M205.3-35.6h-1.3l-1.2-3.1H198l-1.1,3.1h-1.4l4.3-11.1h1.2L205.3-35.6z M202.3-39.8l-1.8-4.8
			c-0.1-0.2-0.1-0.4-0.2-0.7h0c-0.1,0.3-0.1,0.6-0.2,0.7l-1.8,4.8H202.3z"/>
	</g>
	<g>
		<path d="M202.6-36.8h-1.3l-1.2-3.1h-4.7l-1.1,3.1h-1.4l4.3-11.1h1.2L202.6-36.8z M199.7-41.1l-1.8-4.8c-0.1-0.2-0.1-0.4-0.2-0.7h0
			c-0.1,0.3-0.1,0.6-0.2,0.7l-1.8,4.8H199.7z"/>
	</g>
	<path fill="#F39800" d="M209.2-34.5v1.9h-22.5v-1.9c-2.1,0-3.7,1.7-3.7,3.7v8c0,1,0.8,1.9,1.9,1.9h26.2c1,0,1.9-0.8,1.9-1.9v-8
		C213-32.8,211.3-34.5,209.2-34.5L209.2-34.5z M207.4-24.6c0,1-0.8,1.9-1.9,1.9h-15c-1,0-1.9-0.8-1.9-1.9v-1.9h18.7V-24.6z
		 M210.2-28h-1.9c-0.5,0-0.9-0.4-0.9-0.9c0-0.5,0.4-0.9,0.9-0.9h1.9c0.5,0,0.9,0.4,0.9,0.9C211.1-28.5,210.7-28,210.2-28L210.2-28z
		 M210.2-28"/>
</g>
<g>
	<g>
		<path fill="#9FA0A0" d="M-89.8-35.5v24.9h12.4h0.6h0l7.2-7.4v-17.5H-89.8z M-89.3-11.2V-35h19v16.5h-7.2v7.3H-89.3z M-76.9-11.4
			v-6.5h6.3L-76.9-11.4z"/>
		<path fill="#9FA0A0" d="M-76.9-10.5H-90v-25.2h20.4V-18L-76.9-10.5z M-89.7-10.7H-77l7.1-7.3v-17.3h-19.8V-10.7z M-77.4-11h-12.1
			v-24.1h19.3v16.8h-7.2V-11z M-89.1-11.3h11.5v-7.3h7.2v-16.2h-18.7V-11.3z M-77.1-11v-7h6.8L-77.1-11z M-76.8-17.8v6l5.8-6H-76.8z
			"/>
	</g>
	<g>
		<path fill="#B5B5B6" d="M-71.8-19.6h-1.5l-1.3-3.4h-5.1l-1.2,3.4h-1.5l4.6-11.9h1.3L-71.8-19.6z M-75-24.2l-1.9-5.2
			c-0.1-0.2-0.1-0.5-0.2-0.8h0c-0.1,0.4-0.1,0.6-0.2,0.8l-1.9,5.2H-75z"/>
	</g>
	<g>
		<path d="M-74.7-21h-1.5l-1.3-3.4h-5.1l-1.2,3.4h-1.5l4.6-11.9h1.3L-74.7-21z M-77.9-25.6l-1.9-5.2c-0.1-0.2-0.1-0.5-0.2-0.8h0
			c-0.1,0.4-0.1,0.6-0.2,0.8l-1.9,5.2H-77.9z"/>
	</g>
</g>
<g>
	<g>
		<path fill="#9FA0A0" d="M-18.8-84.9v23.1h11.5h0.5h0l6.7-6.9v-16.2H-18.8z M-18.3-62.3v-22.1h17.6V-69h-6.7v6.8H-18.3z M-6.8-62.5
			v-6H-1L-6.8-62.5z"/>
		<path fill="#9FA0A0" d="M-6.8-61.6h-12.2V-85H0v16.4L-6.8-61.6z M-18.7-61.9h11.8l6.6-6.8v-16.1h-18.4V-61.9z M-7.2-62.1h-11.2
			v-22.4h17.9v15.6h-6.7V-62.1z M-18.2-62.4h10.7v-6.8h6.7v-15.1h-17.4V-62.4z M-7-62.2v-6.5h6.3L-7-62.2z M-6.7-68.4v5.6l5.4-5.6
			H-6.7z"/>
	</g>
	<g>
		<path fill="#B5B5B6" d="M-2.1-70.1h-1.3l-1.2-3.1h-4.7l-1.1,3.1h-1.4l4.3-11.1h1.2L-2.1-70.1z M-5.1-74.3l-1.8-4.8
			C-6.9-79.3-7-79.5-7-79.9h0c-0.1,0.3-0.1,0.6-0.2,0.7L-9-74.3H-5.1z"/>
	</g>
	<g>
		<path d="M-4.8-71.4h-1.3l-1.2-3.1h-4.7l-1.1,3.1h-1.4l4.3-11.1H-9L-4.8-71.4z M-7.7-75.6l-1.8-4.8c-0.1-0.2-0.1-0.4-0.2-0.7h0
			c-0.1,0.3-0.1,0.6-0.2,0.7l-1.8,4.8H-7.7z"/>
	</g>
	<path fill="#0068B7" d="M1.8-69v1.9h-22.5V-69c-2.1,0-3.7,1.7-3.7,3.7v8c0,1,0.8,1.9,1.9,1.9H3.7c1,0,1.9-0.8,1.9-1.9v-8
		C5.6-67.3,3.9-69,1.8-69L1.8-69z M0-59.1c0,1-0.8,1.9-1.9,1.9h-15c-1,0-1.9-0.8-1.9-1.9V-61H0V-59.1z M2.8-62.6H0.9
		C0.4-62.6,0-63,0-63.5c0-0.5,0.4-0.9,0.9-0.9h1.9c0.5,0,0.9,0.4,0.9,0.9C3.7-63,3.3-62.6,2.8-62.6L2.8-62.6z M2.8-62.6"/>
</g>
<g>
	<path fill="#9FA0A0" d="M5.6,0.3v23.1h11.5h0.5h0l6.7-6.9V0.3H5.6z M6.1,22.9V0.8h17.6v15.3h-6.7v6.8H6.1z M17.6,22.7v-6h5.8
		L17.6,22.7z"/>
	<path fill="#9FA0A0" d="M17.6,23.6H5.5V0.2h18.9v16.4L17.6,23.6z M5.7,23.3h11.8l6.6-6.8V0.4H5.7V23.3z M17.2,23.1H6V0.7h17.9v15.6
		h-6.7V23.1z M6.2,22.8h10.7V16h6.7V1H6.2V22.8z M17.4,23v-6.5h6.3L17.4,23z M17.7,16.8v5.6l5.4-5.6H17.7z"/>
</g>
<g>
	<path d="M19.8,14.2h-1.3l-1.2-3.1h-4.7l-1.1,3.1H10l4.3-11.1h1.2L19.8,14.2z M16.8,10l-1.8-4.8C15,5,15,4.8,14.9,4.5h0
		c-0.1,0.3-0.1,0.6-0.2,0.7L12.9,10H16.8z"/>
</g>
<path fill="#0068B7" d="M26.2,16.2v1.9H3.7v-1.9C1.7,16.2,0,17.9,0,20v8c0,1,0.8,1.9,1.9,1.9h26.2c1,0,1.9-0.8,1.9-1.9v-8
	C30,17.9,28.3,16.2,26.2,16.2L26.2,16.2z M24.4,26.1c0,1-0.8,1.9-1.9,1.9h-15c-1,0-1.9-0.8-1.9-1.9v-1.9h18.7V26.1z M27.2,22.6h-1.9
	c-0.5,0-0.9-0.4-0.9-0.9c0-0.5,0.4-0.9,0.9-0.9h1.9c0.5,0,0.9,0.4,0.9,0.9C28.1,22.2,27.7,22.6,27.2,22.6L27.2,22.6z M27.2,22.6"/>
<g>
	<g>
		<path d="M-79.2,153.5v23.1h11.5h0.5h0l6.7-6.9v-16.2H-79.2z M-78.7,176.1V154h17.6v15.3h-6.7v6.8H-78.7z M-67.2,175.9v-6h5.8
			L-67.2,175.9z"/>
		<path d="M-67.2,176.8h-12.2v-23.4h18.9v16.4L-67.2,176.8z M-79.1,176.5h11.8l6.6-6.8v-16.1h-18.4V176.5z M-67.6,176.3h-11.2v-22.4
			h17.9v15.6h-6.7V176.3z M-78.6,176h10.7v-6.8h6.7v-15.1h-17.4V176z M-67.4,176.2v-6.5h6.3L-67.4,176.2z M-67.1,170v5.6l5.4-5.6
			H-67.1z"/>
	</g>
	<g>
		<path fill="#0068B7" d="M-62.5,168.3h-1.3l-1.2-3.1h-4.7l-1.1,3.1h-1.4l4.3-11.1h1.2L-62.5,168.3z M-65.5,164.1l-1.8-4.8
			c-0.1-0.2-0.1-0.4-0.2-0.7h0c-0.1,0.3-0.1,0.6-0.2,0.7l-1.8,4.8H-65.5z"/>
	</g>
	<g>
		<path d="M-65.2,167h-1.3l-1.2-3.1h-4.7l-1.1,3.1h-1.4l4.3-11.1h1.2L-65.2,167z M-68.1,162.8l-1.8-4.8c-0.1-0.2-0.1-0.4-0.2-0.7h0
			c-0.1,0.3-0.1,0.6-0.2,0.7l-1.8,4.8H-68.1z"/>
	</g>
	<path fill="#0068B7" d="M-58.6,169.4v1.9h-22.5v-1.9c-2.1,0-3.7,1.7-3.7,3.7v8c0,1,0.8,1.9,1.9,1.9h26.2c1,0,1.9-0.8,1.9-1.9v-8
		C-54.8,171.1-56.5,169.4-58.6,169.4L-58.6,169.4z M-60.4,179.3c0,1-0.8,1.9-1.9,1.9h-15c-1,0-1.9-0.8-1.9-1.9v-1.9h18.7V179.3z
		 M-57.6,175.8h-1.9c-0.5,0-0.9-0.4-0.9-0.9s0.4-0.9,0.9-0.9h1.9c0.5,0,0.9,0.4,0.9,0.9S-57.1,175.8-57.6,175.8L-57.6,175.8z
		 M-57.6,175.8"/>
</g>
<g>
	<g>
		<path fill="#595757" d="M-83.7,30.1v23.1h11.5h0.5h0l6.7-6.9V30.1H-83.7z M-83.1,52.7V30.6h17.6V46h-6.7v6.8H-83.1z M-71.7,52.5
			v-6h5.8L-71.7,52.5z"/>
		<path fill="#595757" d="M-71.6,53.4h-12.2V30h18.9v16.4L-71.6,53.4z M-83.5,53.1h11.8l6.6-6.8V30.3h-18.4V53.1z M-72.1,52.9h-11.2
			V30.5h17.9v15.6h-6.7V52.9z M-83,52.6h10.7v-6.8h6.7V30.8H-83V52.6z M-71.8,52.8v-6.5h6.3L-71.8,52.8z M-71.5,46.6v5.6l5.4-5.6
			H-71.5z"/>
	</g>
	<g>
		<path fill="#26B7BC" d="M-67,44.9h-1.3l-1.2-3.1h-4.7l-1.1,3.1h-1.4l4.3-11.1h1.2L-67,44.9z M-69.9,40.7l-1.8-4.8
			c-0.1-0.2-0.1-0.4-0.2-0.7h0c-0.1,0.3-0.1,0.6-0.2,0.7l-1.8,4.8H-69.9z"/>
	</g>
	<g>
		<path fill="#595757" d="M-69.6,43.6H-71l-1.2-3.1h-4.7l-1.1,3.1h-1.4l4.3-11.1h1.2L-69.6,43.6z M-72.6,39.4l-1.8-4.8
			c-0.1-0.2-0.1-0.4-0.2-0.7h0c-0.1,0.3-0.1,0.6-0.2,0.7l-1.8,4.8H-72.6z"/>
	</g>
	<path fill="#26B7BC" d="M-63,46v1.9h-22.5V46c-2.1,0-3.7,1.7-3.7,3.7v8c0,1,0.8,1.9,1.9,1.9h26.2c1,0,1.9-0.8,1.9-1.9v-8
		C-59.3,47.7-60.9,46-63,46L-63,46z M-64.9,55.9c0,1-0.8,1.9-1.9,1.9h-15c-1,0-1.9-0.8-1.9-1.9V54h18.7V55.9z M-62.1,52.4h-1.9
		c-0.5,0-0.9-0.4-0.9-0.9c0-0.5,0.4-0.9,0.9-0.9h1.9c0.5,0,0.9,0.4,0.9,0.9C-61.1,52-61.5,52.4-62.1,52.4L-62.1,52.4z M-62.1,52.4"
		/>
</g>
<g>
	<path fill="#9FA0A0" d="M244.6,66.4h-4.5c2.1-2.1,6.9-7.3,6.9-13.5c0-3.4-2.8-6.3-6.3-6.3h-17.7c-3.4,0-6,3.1-6,6.2
		c0,1.7,0.6,3.3,1.8,4.5c0.4,0.3,0.8,0.5,1.3,0.5h2.4c0,0,0.4,2.1-3.7,7.7c0,0-1.7,2.1-1.7,4.8c0,3.2,2,5.7,5.2,6
		c0.1,0,17.4,0,18.1,0c3.4,0,6.7-2.5,6.7-6c0-1-0.3-2.1-0.8-3C246,66.8,245.3,66.4,244.6,66.4L244.6,66.4z M220,56.4
		c0,0-1.3-1.3-1.3-3.9c0-2.3,2.1-4.4,4.3-4.4l14.7,0c-1.4,1-2.3,2.6-2.3,4.4c0,1.2,0.3,2.7,0.9,3.9L220,56.4z M222.5,74.8
		c-2.2-0.2-4-2.1-4-4.4c0-1.2,0.5-2.3,1.2-3.4c1.5-2.1,4.1-5.3,4.4-9l13.2,0c1.1,0,1-0.6,0.9-0.8c-0.1-0.2-0.2-0.4-0.4-0.7
		c-1.3-2.2-2-8,3.4-8c2.5,0,4.4,2,4.3,4.4c-0.3,6.7-7.4,13.1-7.4,13.1c-1.4,1.2-2.4,2.6-2.4,4.4c0,1.8,1,3.5,2.4,4.4H222.5z
		 M241.3,74.5c-2.6,0-5.3-3.9-2.7-6.4l6.3,0C246.2,69.6,245.5,74.5,241.3,74.5L241.3,74.5z M241.3,74.5"/>
	<path fill="#9FA0A0" d="M226,61.5h12l-0.9,1.3h-11.9L226,61.5z M226,61.5"/>
	<path fill="#9FA0A0" d="M224.3,65.5h11.9l-1,1.3h-12L224.3,65.5z M224.3,65.5"/>
	<path fill="#9FA0A0" d="M222.3,69.4h12l-0.9,1.3h-12.3L222.3,69.4z M222.3,69.4"/>
	<path fill="#F39800" d="M235.4,52.5c0-1.8,0.9-3.4,2.3-4.4l-14.7,0c-2.2,0-4.3,2-4.3,4.4c0,2.6,1.3,3.9,1.3,3.9l16.2,0
		C235.7,55.2,235.4,53.7,235.4,52.5z"/>
	<path fill="#F39800" d="M244.9,68.1l-6.3,0c-2.7,2.5,0,6.4,2.7,6.4C245.5,74.5,246.2,69.6,244.9,68.1z"/>
</g>
<g>
	<path fill-rule="evenodd" clip-rule="evenodd" fill="#F39800" d="M123.7-79.7h4.1l-7.4,6.7l-7.4-6.7h4.8v-11.9c1.9,0,3.9,0,5.8,0
		V-79.7z"/>
	<rect x="103.7" y="-102.5" fill="#F39800" width="9.6" height="7.1"/>
	<rect x="109.6" y="-101.4" fill="#FFFFFF" width="1.6" height="4.8"/>
	<path fill="#9FA0A0" d="M110.5-82.9h-7.6c-1.9,0-3.5-1.6-3.5-3.5v-13.2c0-1.9,1.6-3.5,3.5-3.5h11.2l5.4,5.5v2.7h-0.6v-2.5l-5-5.1
		h-11c-1.6,0-2.8,1.3-2.8,2.8v13.2c0,1.6,1.3,2.8,2.8,2.8h7.6V-82.9z"/>
</g>
<g>
	<path fill-rule="evenodd" clip-rule="evenodd" fill="#0068B7" d="M-85.3-46.2h3.3l-5.9,5.4l-5.9-5.4h3.8v-9.5c1.6,0,3.1,0,4.7,0
		V-46.2z"/>
	<rect x="-106.2" y="-70.2" fill="#9FA0A0" width="12.7" height="9.4"/>
	<rect x="-98.5" y="-68.7" fill="#FFFFFF" width="2.1" height="6.4"/>
	<path fill="#9FA0A0" d="M-97.3-44.2h-10.1c-2.5,0-4.6-2.1-4.6-4.6v-17.4c0-2.5,2.1-4.6,4.6-4.6h14.9l7.1,7.3v3.6h-0.8v-3.2
		l-6.7-6.8h-14.5c-2.1,0-3.8,1.7-3.8,3.8v17.4c0,2.1,1.7,3.8,3.8,3.8h10.1V-44.2z"/>
</g>
<path fill="none" stroke="#808080" stroke-width="0.6" stroke-miterlimit="10" d="M72,42.3H61.4c-1.6,0-3,1.4-3,3v12.5
	c0,1.6,1.4,3,3,3h12.5c1.6,0,3-1.4,3-3V47.4L72,42.3z"/>
<g>
	<g>
		<path fill="#9FA0A0" d="M127.1,2.1v25.7h12.2h0.5h0l7.1-7.3V2.1H127.1z M127.7,27.3V2.7h18.7v17.5h-7.1v7.2H127.7z M139.9,27.1
			v-6.4h6.2L139.9,27.1z"/>
		<path fill="#9FA0A0" d="M139.9,28H127V2h20.1v18.6L139.9,28z M127.3,27.7h12.5l7-7.2V2.3h-19.5V27.7z M139.4,27.5h-11.9V2.5h19
			v17.7h-7.1V27.5z M127.8,27.2h11.4V20h7.1V2.8h-18.4V27.2z M139.7,27.4v-6.9h6.7L139.7,27.4z M140,20.8v5.9l5.7-5.9H140z"/>
	</g>
	<g>
		<circle fill="#E60012" cx="129.5" cy="14.6" r="9.7"/>
		<path fill="#FFFFFF" d="M136.6,15.5c-0.3-0.5-1.1-0.7-2.4-0.7c-0.4,0-0.8,0.1-1.4,0.1c-0.4-0.2-0.6-0.4-0.9-0.6
			c-0.6-0.6-1.2-1.6-1.7-2.7v-0.1c0.4-1.4,0.7-3,0-3.8c-0.2-0.1-0.4-0.2-0.6-0.2h-0.2c-0.4,0-0.7,0.4-0.8,0.8
			c-0.4,1.5-0.2,2.2,0.2,3.4c-0.3,0.9-0.6,2-1.1,3c-0.4,0.7-0.7,1.4-1,1.9c-0.4,0.2-0.7,0.4-0.9,0.5c-1.3,0.7-1.9,1.7-2,2.2
			c0,0.2,0,0.3,0.1,0.5V20l0.5,0.3c0.1,0.1,0.2,0.1,0.4,0.1c0.8,0,1.9-1,3.1-3.2c0.1-0.1,0.1-0.1,0.2-0.1c1-0.4,2.4-0.6,4.2-0.8
			c1,0.5,2.3,0.7,3.1,0.7c0.4,0,0.7-0.1,0.9-0.2c0.2-0.2,0.3-0.5,0.4-0.6C136.7,15.9,136.7,15.7,136.6,15.5z M124.4,19.5
			c0.1-0.3,0.6-1,1.4-1.7c0.1-0.1,0.3-0.2,0.5-0.3C125.6,18.8,125,19.4,124.4,19.5z M129.4,8c0.1,0,0.1-0.1,0.1-0.1l0.1,0.1v0.1
			c0.1,0.1,0.1,0.5,0,1v0.2c0,0.3-0.1,0.5-0.2,0.9C129.2,9.4,129.2,8.6,129.4,8z M128.1,16.4h-0.2c0.2-0.4,0.4-0.7,0.6-1.2
			c0.4-0.9,0.8-1.8,1-2.5c0.4,0.9,1,1.8,1.6,2.4c0.1,0.1,0.2,0.2,0.4,0.3C130.7,15.5,129.4,15.8,128.1,16.4z M136,16.2h-0.3
			c-0.5,0-1.3-0.2-2-0.5v-0.1h0.2c1.5,0,1.9,0.3,2,0.4c0,0.1,0.1,0.1,0.1,0.1V16.2z"/>
	</g>
</g>
<g>
	<g>
		<path fill="#9FA0A0" d="M134.3,120.6v25.7h12.2h0.5h0l7.1-7.3v-18.4H134.3z M134.9,145.7v-24.6h18.7v17.5h-7.1v7.2H134.9z
			 M147,145.5v-6.4h6.2L147,145.5z"/>
		<path fill="#9FA0A0" d="M147.1,146.4h-12.9v-26h20.1V139L147.1,146.4z M134.4,146.1H147l7-7.2v-18.2h-19.5V146.1z M146.6,145.9
			h-11.9V121h19v17.7h-7.1V145.9z M135,145.6h11.4v-7.2h7.1v-17.2H135V145.6z M146.9,145.9V139h6.7L146.9,145.9z M147.2,139.2v5.9
			l5.7-5.9H147.2z"/>
	</g>
	<g>
		<circle fill="#8FC31F" cx="136.7" cy="133" r="9.7"/>
		<polygon fill="#FFFFFF" points="141.3,127.9 138.6,127.9 136.7,130.7 134.8,127.9 132.1,127.9 135.3,132.8 131.7,138.1 
			136.9,138.1 136.9,136.3 135.7,136.3 136.7,134.8 138.9,138.1 141.8,138.1 138.1,132.8 		"/>
	</g>
</g>
<g>
	<g>
		<path fill="#9FA0A0" d="M-41.9,98.2v25.7h12.2h0.5h0l7.1-7.3V98.2H-41.9z M-41.3,123.3V98.7h18.7v17.5h-7.1v7.2H-41.3z
			 M-29.1,123.1v-6.4h6.2L-29.1,123.1z"/>
		<path fill="#9FA0A0" d="M-29.1,124H-42V98h20.1v18.6L-29.1,124z M-41.7,123.8h12.5l7-7.2V98.3h-19.5V123.8z M-29.5,123.5h-11.9
			V98.6h19v17.7h-7.1V123.5z M-41.2,123.2h11.4V116h7.1V98.9h-18.4V123.2z M-29.3,123.5v-6.9h6.7L-29.3,123.5z M-29,116.9v5.9
			l5.7-5.9H-29z"/>
	</g>
	<g>
		<circle fill="#00A0E9" cx="-39.4" cy="110.6" r="9.7"/>
		<g>
			<path fill="#FFFFFF" d="M-40.4,104.9c0.2-0.3,0.7-0.6,1.1-0.5c0.4,0,1.1,0.8,1.4,1.2c0.3,0.4,0.1,0.8-0.2,0.6
				c-0.3-0.3-0.8-0.8-1.5-0.9C-40.2,105.3-40.6,105.2-40.4,104.9z"/>
			<path fill="#FFFFFF" d="M-35.7,108.3c-0.1-0.6-1-1-1.7-1.2c-0.7-0.2-1.1-1-2-1.3c-0.9-0.3-1.6-0.1-2.2,0
				c-0.6,0.1-1.1,0.7-0.7,1.3c0.2,0.3,2-0.5,2.7-0.2c0.7,0.3,0.1,0.3-0.6,0.6c-1,0.5-1.8,1.4-2,2.1c-0.3,1.3,0.2,2.3,1.2,2.6
				s2.2-0.1,3.3-0.8c0.8-0.6,0.9-1.6,0.9-2.2c0-0.6-0.1-0.8,0.4-0.7c0.5,0.1,0.3,0.4,0.4,0.6C-35.8,109.4-35.7,108.9-35.7,108.3z
				 M-38.1,110.5c-0.4,0.4-1.3,0.8-1.9,0.5c-0.5-0.2-0.6-1.2-0.4-1.7c0.2-0.3,0.7-0.9,1.6-0.9C-37.3,108.5-37.8,110.1-38.1,110.5z"
				/>
			<circle fill="#FFFFFF" cx="-39.4" cy="114.2" r="0.6"/>
			<path fill="#FFFFFF" d="M-36.6,115.5c0,0-3.9,0-4.4,0c-0.5,0-0.4-0.3-0.4-0.6c0,0,0-0.4,0-0.4c0-0.5-0.4-0.9-0.9-0.9
				c-0.5,0-0.9,0.4-0.9,0.9v1.3c0,0.6,0.5,1.1,1.1,1.1h5.4c0.4,0,0.7-0.3,0.7-0.7C-35.9,115.8-36.2,115.5-36.6,115.5z"/>
		</g>
	</g>
</g>
<g>
	<g>
		<path fill="#F39800" stroke="#F39800" stroke-width="0.5" stroke-miterlimit="10" d="M185.4,40.1c0,0.1-0.1,0.3-0.2,0.4l-5.2,5.2
			c-0.2,0.2-0.5,0.2-0.7,0l-5.2-5.2c-0.2-0.2-0.2-0.5,0-0.7c0.2-0.2,0.5-0.2,0.7,0l4.8,4.8l4.8-4.8c0.2-0.2,0.5-0.2,0.8,0
			C185.3,39.8,185.4,39.9,185.4,40.1L185.4,40.1z M185.4,40.1"/>
		<path fill="#F39800" stroke="#F39800" stroke-width="0.5" stroke-miterlimit="10" d="M185.1,50.1h-10.9c-0.2,0-0.4-0.2-0.4-0.5
			c0-0.3,0.2-0.5,0.4-0.5h10.9c0.2,0,0.4,0.2,0.4,0.5C185.5,49.9,185.3,50.1,185.1,50.1L185.1,50.1z M185.1,50.1"/>
		<path fill="#F39800" stroke="#F39800" stroke-width="0.5" stroke-miterlimit="10" d="M179.1,44.3V33.4c0-0.2,0.2-0.4,0.5-0.4
			c0.3,0,0.5,0.2,0.5,0.4v10.9c0,0.2-0.2,0.4-0.5,0.4C179.3,44.7,179.1,44.5,179.1,44.3L179.1,44.3z M179.1,44.3"/>
	</g>
	<path fill="#F39800" d="M186.6,27.3c4,0,7.3,3.3,7.3,7.3v14c0,4-3.3,7.3-7.3,7.3h-14c-4,0-7.3-3.3-7.3-7.3v-14c0-4,3.3-7.3,7.3-7.3
		H186.6 M186.6,26.6h-14c-4.4,0-8,3.6-8,8v14c0,4.4,3.6,8,8,8h14c4.4,0,8-3.6,8-8v-14C194.6,30.2,191,26.6,186.6,26.6L186.6,26.6z"
		/>
</g>
<g>
	<path fill="none" stroke="#000000" stroke-linecap="round" stroke-linejoin="round" stroke-miterlimit="10" d="M286.2,73l7.3,0.1
		c1.2,1.5,0.7,4.1,0.7,4.1c-0.7,4.5-5.2,4.1-5.2,4.1c-3.5-0.1-4.3-4.1-4.3-4.1c-0.5-3.2,2.7-5.2,2.7-5.2c8.1-7.2,5.3-14.9,5.3-14.9
		c-1-2.9-3.2-3-3.2-3c-5.4,0.5-5.4,3.9-5.4,3.9c-0.4,3.1,1.4,5,1.4,5h-18c0,0-2.6-2.4-1.5-6.3c0,0,1.3-3,5-2.8h17.9"/>
	<path fill="none" stroke="#000000" stroke-linecap="round" stroke-linejoin="round" stroke-miterlimit="10" d="M270.9,63
		c0,0,0.5,3.6-3.7,8.7c0,0-2.8,3.5-1,6.9c0,0,1.4,2.5,3.9,2.7h18.6"/>
	
		<line fill="none" stroke="#000000" stroke-linecap="round" stroke-linejoin="round" stroke-miterlimit="10" x1="273.7" y1="68.1" x2="285.9" y2="68.1"/>
	
		<line fill="none" stroke="#000000" stroke-linecap="round" stroke-linejoin="round" stroke-miterlimit="10" x1="271.1" y1="71.7" x2="283.4" y2="71.7"/>
	
		<line fill="none" stroke="#000000" stroke-linecap="round" stroke-linejoin="round" stroke-miterlimit="10" x1="269.4" y1="75.2" x2="281.7" y2="75.2"/>
</g>
<g>
	<g>
		<path d="M180-88.6h-1.4l-1.2-3.2h-4.9l-1.2,3.2h-1.4l4.4-11.4h1.3L180-88.6z M176.9-93l-1.8-4.9c-0.1-0.2-0.1-0.4-0.2-0.8h0
			c-0.1,0.4-0.1,0.6-0.2,0.8l-1.8,4.9H176.9z"/>
	</g>
	<path fill="#F8B500" d="M165.3-106.1c0.1,0,0.2,0,0.2,0c2.9,0.1,4.1,3.1,4.4,4.7c0.5,3.7-2.5,5.9-2.7,6c-7.1,7.2-4.9,13.8-4.8,14.1
		c0.8,2.7,2.5,2.9,2.6,2.9c4.4-0.5,4.5-3.5,4.5-3.6c0.3-3.1-1.2-2.9-1.2-2.9c-0.1-0.2-0.2-0.4-0.1-0.6c0.1-0.2,0.2-0.3,0.4-0.3h16.7
		c0.1,0,0.2,0.1,0.3,0.1c0.1,0.1,2.6,0.8,1.5,5.2c-0.1,0.2-1.4,3.5-5.1,3.3l-16.6,0c-0.2,0-0.3-0.1-0.4-0.2c0,0-0.1,0-0.1,0
		c-0.2,0-2.4-0.2-3.5-3.6c0-0.1-2.6-7.6,5.1-15.3c0,0,0.1-0.1,0.2-0.1l-5.6-0.1c-0.1,0-0.3-0.1-0.4-0.2c-1.2-1.8-0.7-4.6-0.7-4.7
		C160.9-105.8,164.4-106.1,165.3-106.1z M167.9-97.4c0.7-0.9,1.4-2.2,1.1-3.8c0-0.1-0.7-3.8-3.5-3.9c-0.2,0-3.8-0.3-4.3,3.9
		c0,0-0.4,2.3,0.4,3.7L167.9-97.4z M185.3-84.7h-15.6c0.5,0.9,1.1,0.6,0.9,2.8l0,0c0,0-0.1,2.4-2.6,3.7h14.3
		c3.1,0.2,4.2-2.5,4.2-2.6C187.3-84,185.8-84.1,185.3-84.7z"/>
	<path fill="#F8B500" d="M166-106.1h17.2c2.6,0.3,3.7,3.1,3.8,3.2c1.5,4.4-1.1,8-1.3,8.2c-3.7,5.1-2.9,9.4-2.9,9.4
		c0,0.3-0.1,0.6-0.4,0.6c-0.2,0-0.5-0.2-0.5-0.5c0-0.2-0.9-4.8,3.1-10.2c0,0,2.4-3.6,1.2-7c0,0-1-2.4-3-2.6l-17.1,0
		c-0.3,0-0.5-0.2-0.5-0.5S165.7-106.1,166-106.1z"/>
	<path fill="#F8B500" d="M169.1-101.2c0-0.1-0.7-3.8-3.5-3.9c-0.2,0-3.8-0.3-4.3,3.9c0,0-0.4,2.3,0.4,3.7l6.3,0.1
		C168.6-98.2,169.3-99.6,169.1-101.2z"/>
	<path fill="#F8B500" d="M186.5-80.8c0.8-3.2-0.7-3.3-1.2-3.9h-15.6c0.5,0.9,1.1,0.6,0.9,2.8c0,0-0.1,2.4-2.6,3.7h14.3
		C185.4-78,186.5-80.7,186.5-80.8z"/>
</g>
<g>
	<g>
		<path fill="#B5B5B6" d="M112.7-32.2h-1.3l-1.2-3.1h-4.7l-1.1,3.1h-1.3l4.2-10.9h1.2L112.7-32.2z M109.8-36.4l-1.7-4.7
			c-0.1-0.2-0.1-0.4-0.2-0.7h0c-0.1,0.3-0.1,0.6-0.2,0.7l-1.7,4.7H109.8z"/>
	</g>
	<g>
		<path d="M110.1-33.5h-1.3l-1.2-3.1h-4.7l-1.1,3.1h-1.3l4.2-10.9h1.2L110.1-33.5z M107.2-37.7l-1.7-4.7c-0.1-0.2-0.1-0.4-0.2-0.7h0
			c-0.1,0.3-0.1,0.6-0.2,0.7l-1.7,4.7H107.2z"/>
	</g>
	<path fill="#F8B500" d="M96.5-50.2c0.1,0,0.2,0,0.2,0c2.9,0.1,4.1,3.1,4.4,4.7c0.5,3.7-2.5,5.9-2.7,6c-7.1,7.2-4.9,13.8-4.8,14.1
		c0.8,2.7,2.5,2.9,2.6,2.9c4.4-0.5,4.5-3.5,4.5-3.6c0.3-3.1-1.2-2.9-1.2-2.9c-0.1-0.2-0.2-0.4-0.1-0.6c0.1-0.2,0.2-0.3,0.4-0.3h16.7
		c0.1,0,0.2,0.1,0.3,0.1c0.1,0.1,2.6,0.8,1.5,5.2c-0.1,0.2-1.4,3.5-5.1,3.3l-16.6,0c-0.2,0-0.3-0.1-0.4-0.2c0,0-0.1,0-0.1,0
		c-0.2,0-2.4-0.2-3.5-3.6c0-0.1-2.6-7.6,5.1-15.3c0,0,0.1-0.1,0.2-0.1l-5.6-0.1c-0.1,0-0.3-0.1-0.4-0.2c-1.2-1.8-0.7-4.6-0.7-4.7
		C92-49.9,95.6-50.2,96.5-50.2z M99.1-41.4c0.7-0.9,1.4-2.2,1.1-3.8c0-0.1-0.7-3.8-3.5-3.9c-0.2,0-3.8-0.3-4.3,3.9
		c0,0-0.4,2.3,0.4,3.7L99.1-41.4z M116.5-28.8h-15.6c0.5,0.9,1.1,0.6,0.9,2.8l0,0c0,0-0.1,2.4-2.6,3.7h14.3c3.1,0.2,4.2-2.5,4.2-2.6
		C118.4-28,116.9-28.2,116.5-28.8z"/>
	<path fill="#F8B500" d="M97.1-50.1h17.2c2.6,0.3,3.7,3.1,3.8,3.2c1.5,4.4-1.1,8-1.3,8.2c-3.7,5.1-2.9,9.4-2.9,9.4
		c0,0.3-0.1,0.6-0.4,0.6c-0.2,0-0.5-0.2-0.5-0.5c0-0.2-0.9-4.8,3.1-10.2c0,0,2.4-3.6,1.2-7c0,0-1-2.4-3-2.6l-17.1,0
		c-0.3,0-0.5-0.2-0.5-0.5C96.7-49.9,96.9-50.1,97.1-50.1z"/>
	<path fill="#F8B500" d="M100.2-45.2c0-0.1-0.7-3.8-3.5-3.9c-0.2,0-3.8-0.3-4.3,3.9c0,0-0.4,2.3,0.4,3.7l6.3,0.1
		C99.8-42.3,100.4-43.6,100.2-45.2z"/>
	<path fill="#F8B500" d="M117.7-24.9c0.8-3.2-0.7-3.3-1.2-3.9h-15.6c0.5,0.9,1.1,0.6,0.9,2.8c0,0-0.1,2.4-2.6,3.7h14.3
		C116.5-22,117.6-24.7,117.7-24.9z"/>
</g>
</svg>
