<?xml version="1.0" encoding="utf-8"?>
<!-- Generator: Adobe Illustrator 18.1.1, SVG Export Plug-In . SVG Version: 6.00 Build 0)  -->
<svg version="1.1" id="레이어_1" xmlns="http://www.w3.org/2000/svg" xmlns:xlink="http://www.w3.org/1999/xlink" x="0px"
	 y="0px" viewBox="0 0 35 35" enable-background="new 0 0 35 35" xml:space="preserve">
<rect fill="none" width="35" height="35"/>
<g>
	<g>
		<path fill="#C8C8C8" d="M20.3,23.2c2.9,0,5.3-2.4,5.3-5.3c0-2.9-2.4-5.3-5.3-5.3c-2.9,0-5.3,2.4-5.3,5.3
			C15,20.8,17.3,23.2,20.3,23.2L20.3,23.2z M20.3,23.2"/>
		<path fill="#C8C8C8" d="M15.8,24.2c-2,0-3.7,1.7-3.7,3.7V32c0,0.4,0.3,0.7,0.7,0.7h15c0.4,0,0.7-0.3,0.7-0.7v-4
			c0.1-0.1,0.1-0.2,0.2-0.3l2.9-7.7c0.1-0.3,0.1-0.5,0.1-0.8v-8.6c0-1.3-1-2.3-2.3-2.3c-1.3,0-2.3,1-2.3,2.3v8.2l-2.1,5.4H15.8z
			 M15.8,24.2"/>
	</g>
	<g>
		<path fill="#C8C8C8" d="M4.1,7.9H6c0.4,0,0.7-0.3,0.8-0.7C6.9,6.5,7.1,6,7.4,5.7c0.3-0.3,0.7-0.4,1.3-0.4c0.6,0,1,0.2,1.3,0.5
			C10.4,6,10.5,6.4,10.5,7c0,0.2-0.1,0.5-0.2,0.7c-0.1,0.1-0.3,0.5-1.2,1.2c-0.8,0.7-1.4,1.4-1.7,2c-0.3,0.7-0.5,1.6-0.5,3
			c0,0.4,0.4,0.8,0.8,0.8h1.7c0.4,0,0.8-0.4,0.8-0.8c0-1,0.1-1.4,0.2-1.6c0.1-0.1,0.3-0.5,1.2-1.3c0.9-0.7,1.5-1.4,1.8-2
			C13.8,8.3,14,7.6,14,6.8c0-1.3-0.5-2.5-1.5-3.3c-1-0.8-2.2-1.3-3.8-1.3C7.2,2.2,6,2.7,5,3.5C4,4.4,3.5,5.6,3.4,7
			C3.3,7.5,3.7,7.9,4.1,7.9L4.1,7.9z M4.1,7.9"/>
		<path fill="#C8C8C8" d="M9.4,19.1c0.4,0,0.8-0.4,0.8-0.8v-1.7c0-0.4-0.4-0.8-0.8-0.8H7.8c-0.4,0-0.8,0.4-0.8,0.8v1.7
			c0,0.4,0.4,0.8,0.8,0.8H9.4z M9.4,19.1"/>
	</g>
</g>
</svg>
